<svg width="33" height="33" viewBox="0 0 33 33" fill="none" xmlns="http://www.w3.org/2000/svg">
<g clip-path="url(#clip0)">
<path d="M16.5 0C13.2366 0 10.0465 0.967291 7.3331 2.77955C4.61969 4.59182 2.50484 7.16765 1.256 10.1813C0.00714922 13.195 -0.319606 16.5112 0.31705 19.7105C0.953706 22.9098 2.52518 25.8486 4.83275 28.1551C7.14031 30.4617 10.0803 32.0325 13.281 32.6689C16.4817 33.3053 19.7993 32.9786 22.8143 31.7303C25.8293 30.482 28.4062 28.3681 30.2193 25.6559C32.0323 22.9436 33 19.7549 33 16.4929C32.9995 12.1189 31.2609 7.92415 28.1667 4.83125C25.0724 1.73835 20.8759 0.000538374 16.5 0V0ZM16.5 28.9879C14.0277 28.9879 11.6108 28.2551 9.55514 26.8821C7.49945 25.5092 5.89724 23.5577 4.95112 21.2745C4.00499 18.9914 3.75744 16.479 4.23977 14.0552C4.7221 11.6314 5.91265 9.40503 7.66087 7.65756C9.40909 5.9101 11.6364 4.72006 14.0613 4.23794C16.4861 3.75581 18.9996 4.00326 21.2837 4.94898C23.5679 5.8947 25.5202 7.49622 26.8937 9.55102C28.2673 11.6058 29.0004 14.0216 29.0004 16.4929C28.9972 19.8058 27.6792 22.9821 25.3356 25.3247C22.992 27.6672 19.8143 28.9847 16.5 28.9879Z" fill="#F0F1F2"/>
<path d="M14.4992 18.9034C15.049 19.3964 15.7615 19.6691 16.5 19.6691C17.2386 19.6691 17.9511 19.3964 18.5008 18.9034V14.1117C17.9517 13.6174 17.239 13.3439 16.5 13.3439C15.7611 13.3439 15.0483 13.6174 14.4992 14.1117V18.9034ZM16.5 8.01237C15.3846 8.01231 14.2801 8.23214 13.2498 8.65928C12.2195 9.08642 11.2835 9.71248 10.4956 10.5016L13.3191 13.3279C14.1624 12.485 15.3063 12.0114 16.499 12.0114C17.6917 12.0114 18.8356 12.485 19.679 13.3279L22.5065 10.5016C21.7182 9.71182 20.7816 9.08536 19.7505 8.65819C18.7195 8.23102 17.6141 8.01155 16.498 8.01237H16.5ZM19.683 19.6953C19.2656 20.1129 18.7698 20.4442 18.2242 20.6703C17.6786 20.8963 17.0937 21.0127 16.5031 21.0127C15.9124 21.0127 15.3276 20.8963 14.7819 20.6703C14.2363 20.4442 13.7406 20.1129 13.3231 19.6953L10.4997 22.5134C11.2882 23.3023 12.2245 23.9281 13.2552 24.3551C14.2858 24.7821 15.3905 25.0019 16.5061 25.0019C17.6218 25.0019 18.7265 24.7821 19.7571 24.3551C20.7877 23.9281 21.7241 23.3023 22.5126 22.5134L19.683 19.6953ZM16.4939 33.0004C16.5649 32.0532 16.3155 31.1096 15.7858 30.321C15.2562 29.5324 14.4769 28.9444 13.573 28.6513H13.5567C11.1769 28.0617 9.02271 26.7865 7.3616 24.9839C5.70049 23.1812 4.60561 20.9307 4.21288 18.5115H12.5005C12.1776 17.8943 12.009 17.2081 12.009 16.5116C12.009 15.8151 12.1776 15.1289 12.5005 14.5117H4.20475C4.52746 12.4945 5.34138 10.5875 6.57486 8.95868C7.80834 7.32987 9.42353 6.02917 11.2782 5.17112C13.1329 4.31307 15.1702 3.92398 17.2108 4.03812C19.2513 4.15225 21.2324 4.76611 22.9798 5.82564C23.8153 6.32687 24.8055 6.5051 25.7635 6.32668C26.7214 6.14825 27.581 5.62553 28.1798 4.85714C26.2628 2.93703 23.9015 1.51922 21.3053 0.72933C18.709 -0.0605599 15.9579 -0.198139 13.2957 0.328783C10.6336 0.855705 8.14251 2.03086 6.04331 3.75012C3.94411 5.46938 2.30157 7.67966 1.26123 10.1851C0.220894 12.6906 -0.185122 15.4139 0.0791601 18.1137C0.343442 20.8135 1.26986 23.4064 2.77633 25.6628C4.2828 27.9192 6.32281 29.7693 8.7156 31.0492C11.1084 32.3291 13.7801 32.9993 16.4939 33.0004Z" fill="#FFBB17"/>
</g>
<defs>
<clipPath id="clip0">
<rect width="33" height="33" fill="white"/>
</clipPath>
</defs>
</svg>
