<svg width="88" height="88" viewBox="0 0 88 88" fill="none" xmlns="http://www.w3.org/2000/svg">
<path d="M53.8633 63.3966C54.2032 63.0574 54.4728 62.6545 54.6568 62.2109C54.8408 61.7673 54.9355 61.2918 54.9355 60.8116C54.9355 60.3314 54.8408 59.8559 54.6568 59.4123C54.4728 58.9688 54.2032 58.5658 53.8633 58.2266L39.6366 44L53.8633 29.7733C54.5488 29.0877 54.934 28.1579 54.934 27.1883C54.934 26.2187 54.5488 25.2889 53.8633 24.6033C53.1777 23.9177 52.2478 23.5326 51.2783 23.5326C50.3087 23.5326 49.3788 23.9177 48.6933 24.6033L31.8633 41.4333C31.5233 41.7725 31.2537 42.1754 31.0697 42.619C30.8857 43.0626 30.791 43.5381 30.791 44.0183C30.791 44.4985 30.8857 44.974 31.0697 45.4176C31.2537 45.8612 31.5233 46.2641 31.8633 46.6033L48.6933 63.4333C50.0866 64.8266 52.4333 64.8266 53.8633 63.3966Z" fill="url(#paint0_linear)" fill-opacity="0.8"/>
<defs>
<linearGradient id="paint0_linear" x1="59.3255" y1="74.7091" x2="14.0664" y2="75.3059" gradientUnits="userSpaceOnUse">
<stop stop-color="#6A11CB"/>
<stop offset="1" stop-color="#2575FC"/>
</linearGradient>
</defs>
</svg>
