<svg width="38" height="42" viewBox="0 0 38 42" fill="none" xmlns="http://www.w3.org/2000/svg">
<path d="M7.9675 4.46763C7.58241 4.24922 7.14677 4.13564 6.70407 4.13821C6.26136 4.14077 5.82707 4.25941 5.44454 4.48227C5.06201 4.70512 4.74462 5.02441 4.52404 5.40826C4.30347 5.79211 4.18743 6.2271 4.1875 6.66982V35.3438C4.18743 35.7865 4.30347 36.2215 4.52404 36.6054C4.74462 36.9892 5.06201 37.3085 5.44454 37.5314C5.82707 37.7542 6.26136 37.8729 6.70407 37.8754C7.14677 37.878 7.58241 37.7644 7.9675 37.546L33.2749 23.2023C33.6645 22.9815 33.9885 22.6613 34.2139 22.2745C34.4394 21.8876 34.5581 21.4478 34.5581 21.0001C34.5581 20.5523 34.4394 20.1126 34.2139 19.7257C33.9885 19.3388 33.6645 19.0187 33.2749 18.7979L7.96581 4.46763H7.9675ZM0.8125 6.66982C0.8125 2.14732 5.69106 -0.697808 9.62969 1.53138L34.9371 15.8616C38.9314 18.1229 38.9331 23.8773 34.9388 26.1385L9.63137 40.4823C5.69275 42.7131 0.8125 39.8663 0.8125 35.3438V6.66982Z" fill="url(#paint0_linear)" fill-opacity="0.8"/>
<defs>
<linearGradient id="paint0_linear" x1="-5.93681" y1="-9.36925" x2="63.6298" y2="-10.7951" gradientUnits="userSpaceOnUse">
<stop stop-color="#6A11CB"/>
<stop offset="1" stop-color="#2575FC"/>
</linearGradient>
</defs>
</svg>
