<svg width="50" height="45" viewBox="0 0 50 45" fill="none" xmlns="http://www.w3.org/2000/svg">
<path d="M49.0444 21.9798C46.4726 19.45 33.613 17.8707 29.5553 17.411C29.7519 16.9358 29.9192 16.4443 30.0573 15.9382C30.6105 15.6902 31.2077 15.4594 31.825 15.2668C31.9003 15.494 32.2546 16.3645 32.4565 16.7776C40.6159 17.008 41.0348 10.57 41.3667 8.80626C41.6912 7.08168 41.6747 5.41532 44.4734 2.36901C40.3038 1.12507 34.3077 4.297 32.2993 9.01808C31.5445 8.72857 30.7881 8.51476 30.0399 8.3825C29.5038 6.16843 26.7119 0 19.3857 0C10.1098 0 0 7.83424 0 21.0961C0 32.2439 7.43434 42.0136 11.6347 42.0136C13.4691 42.0136 15.0471 40.6073 15.4175 39.3466C15.7281 40.211 16.681 42.898 16.994 43.5821C17.4565 44.5936 19.5957 45.4689 20.5319 44.4192C21.7356 45.1038 23.9442 45.5162 25.148 43.6904C27.4663 44.1924 29.5158 42.7772 29.5605 41.0885C30.6981 41.0263 31.2561 39.3911 31.0077 38.0889C30.8245 37.1301 28.8685 33.6899 28.1055 32.5024C29.6159 33.7602 33.4417 34.1162 33.9063 32.5032C36.3415 34.4601 40.1365 33.433 40.4375 31.8415C43.3964 32.6286 46.7902 30.8999 46.233 28.8063C50.9865 28.4697 50.3781 23.2919 49.0444 21.9798Z" fill="#543729"/>
<path d="M35.8084 10.9358C36.8323 8.85616 38.1188 6.58542 39.7438 5.18058C37.9552 5.91852 36.1894 8.12452 35.1453 10.4823C34.6132 10.1361 34.0729 9.82718 33.528 9.55703C34.9845 6.37438 38.3687 3.71641 42.0983 3.50879C39.6002 5.82822 40.487 10.649 38.433 13.2011C37.8453 12.5967 36.4958 11.4303 35.8084 10.9358ZM34.1936 14.3222C34.1947 14.2426 34.2238 13.6287 34.2784 13.3485C34.1351 13.314 33.2448 13.1357 32.7806 13.1468C32.7468 13.7437 33.0256 14.7591 33.3011 15.3703C35.1989 15.3296 36.5696 14.7478 37.3763 14.2129C36.6895 13.8851 35.5174 13.5937 34.6262 13.4194C34.5268 13.63 34.282 14.1667 34.1936 14.3222Z" fill="#00ACEE"/>
<path d="M27.1428 30.7743C27.1433 30.7771 27.1445 30.7808 27.1448 30.7836C26.9043 30.2537 26.6488 29.61 26.3438 28.7687C27.5316 30.5388 31.2544 29.6259 31.0591 28.0397C32.8813 29.4434 36.6321 27.8059 35.7794 25.8377C37.6047 26.7085 39.688 24.9565 39.2208 24.193C42.3327 24.8075 45.3149 25.4199 46.251 25.6652C45.6291 26.7033 44.2128 27.4364 42.0778 26.9269C43.2314 28.5359 40.9916 30.4661 37.8718 29.403C38.5585 30.9825 35.7808 32.4045 32.6237 30.7581C32.6638 32.3383 28.7071 32.5202 27.1428 30.7743ZM33.316 22.7875C36.9277 23.0714 42.9005 23.6228 46.5982 24.1525C46.3646 22.9206 45.7265 22.5686 43.7192 22.0166C41.5603 22.2523 36.0831 22.8031 33.316 22.7875Z" fill="#2BAF2B"/>
<path d="M31.0587 28.0418C32.8808 29.4454 36.6316 27.8079 35.7789 25.8398C37.6042 26.7105 39.6875 24.9585 39.2203 24.1951C35.5412 23.4689 31.6806 22.74 30.8048 22.6126C31.336 22.6415 32.2165 22.7032 33.3155 22.7897C36.0828 22.8053 41.5599 22.2545 43.7187 22.0188C40.2232 21.1114 33.0863 19.7872 28.1575 19.4609C27.9291 19.8027 27.5093 20.3823 26.778 20.9981C24.6216 25.6692 20.7144 28.7741 16.3915 28.7741C15.1317 28.7741 13.7221 28.5565 12.1422 28.0394C11.157 29.12 6.95629 29.9389 3.54785 28.2261C6.25147 34.7072 12.5213 39.0335 19.4616 39.0335C25.3066 39.0335 27.8984 32.923 27.3312 31.3062C27.1936 30.9137 26.6482 29.6121 26.3431 28.7709C27.5311 30.5408 31.2538 29.6279 31.0587 28.0418Z" fill="#FFCC2F"/>
<path d="M27.5161 15.7421C28.0322 15.4547 29.8156 14.348 31.5151 13.9321C31.4883 13.7394 31.468 13.545 31.4555 13.3496C30.3406 13.623 28.2385 14.5453 27.0339 13.2742C29.5753 14.0593 30.8442 12.5747 32.7121 12.5747C33.8251 12.5747 35.4133 12.893 36.6652 13.3962C35.6583 12.4439 32.3562 9.56977 28.2678 9.55981C27.355 10.6927 26.3684 13.1469 27.5161 15.7421Z" fill="#CECECE"/>
<path d="M12.1422 28.0392C13.7221 28.5562 15.1316 28.7738 16.3914 28.7738C20.7144 28.7738 24.6214 25.6688 26.7779 20.9979C25.183 22.3609 22.411 23.5271 18.0821 23.5271C21.938 22.632 25.2573 20.6649 26.9459 17.7894C25.7589 15.8553 24.4716 11.5766 27.7317 8.19408C27.2302 6.54465 24.7893 2.19043 19.3856 2.19043C9.95529 2.19043 2.13989 10.269 2.13989 21.0957C2.13989 23.6586 2.64527 26.0623 3.54791 28.2257C6.95624 29.9386 11.1569 29.1197 12.1422 28.0392Z" fill="#EF5734"/>
<path d="M14.9709 11.5547C14.9709 14.0173 16.921 16.0139 19.3266 16.0139C21.7321 16.0139 23.6824 14.0173 23.6824 11.5547C23.6824 9.09195 21.7321 7.09546 19.3266 7.09546C16.921 7.09546 14.9709 9.09195 14.9709 11.5547Z" fill="#FFCC2F"/>
<path d="M16.7192 11.5536C16.7192 13.028 17.8869 14.2233 19.327 14.2233C20.7673 14.2233 21.9348 13.028 21.9348 11.5536C21.9348 10.0791 20.7674 8.88379 19.327 8.88379C17.8869 8.88379 16.7192 10.0791 16.7192 11.5536Z" fill="#543729"/>
<path d="M19.327 11.3388C20.1662 11.3388 20.8465 10.9058 20.8465 10.3716C20.8465 9.83735 20.1662 9.4043 19.327 9.4043C18.4877 9.4043 17.8074 9.83735 17.8074 10.3716C17.8074 10.9058 18.4877 11.3388 19.327 11.3388Z" fill="white"/>
</svg>
