<svg width="40" height="56" viewBox="0 0 40 56" fill="none" xmlns="http://www.w3.org/2000/svg">
<path d="M9.99972 55.219C15.5196 55.219 19.9994 51.0957 19.9994 46.0152V36.8115H9.99972C4.47988 36.8115 0 40.9348 0 46.0152C0 51.0957 4.47988 55.219 9.99972 55.219Z" fill="#0ACF83"/>
<path d="M0 27.615C0 22.5345 4.47988 18.4113 9.99972 18.4113H19.9994V36.8187H9.99972C4.47988 36.8187 0 32.6954 0 27.615Z" fill="#A259FF"/>
<path d="M0 9.20386C0 4.12333 4.47987 0 9.9997 0H19.9994V18.4077H9.9997C4.47987 18.4077 0 14.2844 0 9.20386Z" fill="#F24E1E"/>
<path d="M20.0007 0H30.0004C35.5203 0 40.0001 4.12333 40.0001 9.20386C40.0001 14.2844 35.5203 18.4077 30.0004 18.4077H20.0007V0Z" fill="#FF7262"/>
<path d="M40.0001 27.615C40.0001 32.6954 35.5202 36.8187 30.0004 36.8187C24.4806 36.8187 20.0007 32.6954 20.0007 27.615C20.0007 22.5345 24.4806 18.4113 30.0004 18.4113C35.5202 18.4113 40.0001 22.5345 40.0001 27.615Z" fill="#1ABCFE"/>
</svg>
