<svg width="50" height="50" viewBox="0 0 50 50" fill="none" xmlns="http://www.w3.org/2000/svg">
<g clip-path="url(#clip0)">
<path d="M49.057 22.7726L27.2266 0.943286C25.9701 -0.31394 23.9311 -0.31394 22.673 0.943286L18.1398 5.47649L23.8904 11.2271C25.2268 10.7755 26.7592 11.0784 27.8244 12.1437C28.8947 13.2157 29.1955 14.7613 28.733 16.1019L34.275 21.6441C35.6158 21.1822 37.1629 21.481 38.2338 22.5536C39.7305 24.0497 39.7305 26.4745 38.2338 27.9716C36.7367 29.4689 34.3119 29.4689 32.8141 27.9716C31.6883 26.8446 31.4102 25.1913 31.9801 23.8044L26.8117 18.6361L26.8111 32.237C27.1858 32.4223 27.528 32.667 27.8244 32.9616C29.3211 34.4577 29.3211 36.8827 27.8244 38.381C26.3273 39.8775 23.9014 39.8775 22.4064 38.381C20.9098 36.8827 20.9098 34.4579 22.4064 32.9618C22.7651 32.603 23.1914 32.3188 23.6605 32.1257V18.398C23.1907 18.2062 22.7642 17.9218 22.4064 17.5618C21.2725 16.4294 20.9998 14.7655 21.5809 13.3732L15.9121 7.70383L0.943359 22.6716C-0.314453 23.93 -0.314453 25.9693 0.943359 27.2267L22.7742 49.0564C24.0311 50.3138 26.0697 50.3138 27.3281 49.0564L49.0568 27.328C50.3143 26.0702 50.3143 24.0298 49.0568 22.7726" fill="#DE4C36"/>
</g>
<defs>
<clipPath id="clip0">
<rect width="50" height="50" fill="white"/>
</clipPath>
</defs>
</svg>
