<svg width="50" height="50" viewBox="0 0 50 50" fill="none" xmlns="http://www.w3.org/2000/svg">
<path d="M50 0H0L4.68738 44.9105L24.9975 50L45.3075 44.9105L50 0Z" fill="#E6A329"/>
<path d="M24.9976 3.66235V46.1975L41.4533 42.0786L45.4565 3.66235H24.9976Z" fill="#F1BF22"/>
<path d="M38.0882 9.16772H12.7865L11.0242 25.9808L11.0605 25.8762H32.5556L31.8555 32.99L24.9972 34.7332L18.0377 32.9619L17.6209 28.6563H11.3036L12.2048 37.2596L24.9972 40.4682L37.7954 37.2596L39.5577 20.3723H16.7451L17.0379 14.7458H32.8655L33.1023 17.9696H39.473L38.0882 9.16772Z" fill="white"/>
<path d="M25.0023 9.1676H12.7865L11.0242 25.9808L11.0605 25.8762H25.0017V20.3914H17.6349L17.9276 14.7649H25.0023V9.1676ZM17.6349 28.6591H11.3029L12.2041 37.258L24.9966 40.4632V34.7411L18.0371 32.9653L17.6349 28.6591Z" fill="#EBEBEB"/>
</svg>
