<svg width="50" height="50" viewBox="0 0 50 50" fill="none" xmlns="http://www.w3.org/2000/svg">
<path d="M3.75936 12.5711C-0.548839 18.7629 -0.012511 26.8196 3.2785 33.3993C3.35663 33.5571 3.43866 33.7122 3.51952 33.8672L3.67343 34.1637L3.76952 34.3344L3.94101 34.6415C4.04335 34.8215 4.14804 35.0008 4.25507 35.1801L4.43436 35.4754C4.55311 35.6672 4.6746 35.8567 4.79882 36.0458L4.95429 36.2856C5.12577 36.5415 5.30116 36.7969 5.48241 37.0477L5.49765 37.0672L5.58671 37.1875C5.74335 37.4036 5.90468 37.6168 6.06796 37.8278L6.24921 38.0583C6.39491 38.2415 6.54296 38.4235 6.69374 38.6047L6.86366 38.8079C7.06601 39.0461 7.27265 39.2833 7.48319 39.5157L7.49608 39.5286L7.51991 39.5551C7.72577 39.7797 7.93632 39.9993 8.1496 40.2188L8.35155 40.4223C8.51679 40.5887 8.68475 40.7524 8.85429 40.9153L9.06015 41.1106C9.28671 41.3243 9.51561 41.5336 9.74921 41.7383L9.76015 41.7469L9.88007 41.8493C10.0859 42.0274 10.2953 42.2043 10.5062 42.3778L10.7656 42.5844C10.9379 42.7227 11.1121 42.8586 11.2875 42.9922L11.5664 43.2043C11.7601 43.3469 11.9551 43.4872 12.1519 43.6243L12.3652 43.7754L12.4238 43.8172C12.6105 43.9458 12.8016 44.0696 12.9926 44.1934L13.2387 44.3575C13.5316 44.5426 13.8285 44.7258 14.1289 44.9028L14.375 45.0415C14.5957 45.1688 14.818 45.2938 15.043 45.4161C15.1648 45.4817 15.2898 45.5438 15.4125 45.6067C15.5715 45.6899 15.7293 45.7743 15.891 45.8551L16.0016 45.9086L16.1973 46.0032C16.4476 46.1227 16.7 46.2403 16.9551 46.3536L17.1152 46.4254C17.4074 46.5532 17.7019 46.6758 17.9992 46.793L18.2144 46.8778C18.4894 46.9836 18.7683 47.0883 19.0484 47.1868L19.1531 47.2231C19.4605 47.3305 19.7707 47.4301 20.0832 47.5274L20.3078 47.5946C20.6258 47.6903 20.9402 47.8047 21.268 47.8653C42.1035 51.6649 48.1559 35.3446 48.1559 35.3446C43.0726 41.9668 34.05 43.7137 25.5012 41.7688C25.1773 41.6958 24.8633 41.5946 24.5473 41.5012L24.3094 41.429C24.0008 41.3344 23.6949 41.2348 23.3906 41.1301L23.2644 41.0844C22.9918 40.9887 22.7226 40.8876 22.4543 40.784L22.2269 40.6946C21.9332 40.5786 21.641 40.4575 21.3523 40.3309L21.1777 40.2536C20.9297 40.1411 20.6844 40.0278 20.4398 39.9102L20.2266 39.8079C20.0348 39.7145 19.8449 39.6153 19.6558 39.5176C19.5293 39.4508 19.4004 39.3879 19.275 39.3184C19.0437 39.1946 18.8172 39.0661 18.591 38.9348L18.3601 38.8059C18.0598 38.6293 17.7633 38.4461 17.4695 38.2602L17.2293 38.1001C17.0164 37.9629 16.8043 37.8231 16.5953 37.6786L16.3914 37.5352C16.1898 37.3926 15.9902 37.2485 15.7922 37.102L15.5269 36.9012C15.3453 36.7626 15.1648 36.6227 14.9863 36.4786L14.7453 36.2852C14.518 36.0981 14.2937 35.9106 14.0719 35.7176L13.998 35.6555C13.7582 35.445 13.523 35.229 13.2902 35.0122L13.0906 34.8204C12.9183 34.6563 12.7488 34.4911 12.582 34.3215L12.3828 34.1227C12.1707 33.9055 11.9625 33.6856 11.7586 33.4626L11.7277 33.4297C11.5121 33.1938 11.3012 32.9528 11.0945 32.7094L10.9289 32.5126C10.775 32.327 10.6223 32.1391 10.473 31.9493L10.3062 31.7415C10.1269 31.5086 9.95155 31.277 9.78007 31.0407C5.03397 24.5665 3.3285 15.6376 7.12186 8.30474L3.75936 12.5711ZM17.1332 7.35396C14.0172 11.8375 14.1867 17.8399 16.6172 22.5817C17.0246 23.3766 17.4828 24.1481 17.9953 24.8821C18.4621 25.5512 18.9797 26.3473 19.5992 26.8848C19.8238 27.1321 20.0586 27.3735 20.2984 27.6106L20.4828 27.7922C20.7156 28.018 20.9519 28.2399 21.1969 28.4555L21.2258 28.4805L21.2328 28.4876C21.5035 28.7251 21.7828 28.9528 22.0668 29.1778L22.2562 29.3254C22.541 29.5438 22.8312 29.7579 23.1285 29.9626L23.1539 29.9817C23.2851 30.0723 23.4187 30.1567 23.5519 30.2442L23.7406 30.3688C23.9531 30.5051 24.1683 30.6379 24.3871 30.7653L24.4789 30.8184C24.6676 30.927 24.8586 31.034 25.0504 31.1379L25.2539 31.2438C25.3863 31.3129 25.5187 31.3836 25.6535 31.4508L25.7141 31.4782C25.9887 31.6133 26.2656 31.7438 26.5484 31.8668L26.7328 31.9426C26.959 32.0387 27.1875 32.1325 27.4164 32.22L27.7094 32.3274C27.9176 32.4047 28.1266 32.4751 28.3371 32.5458L28.6211 32.6368C28.9207 32.7297 29.2168 32.8473 29.5289 32.8993C45.616 35.5645 49.3301 23.1782 49.3301 23.1782C45.9824 27.9997 39.4988 30.3004 32.5805 28.5043C32.273 28.4235 31.9703 28.336 31.6691 28.2411L31.3953 28.1524C31.1812 28.0833 30.9687 28.0098 30.7582 27.9329L30.4707 27.8258C30.2394 27.7368 30.0113 27.6454 29.7848 27.5493L29.6 27.4711C29.316 27.3477 29.0363 27.2172 28.7609 27.0809C28.6191 27.0118 28.4797 26.9387 28.3398 26.8668L28.0969 26.7418C27.918 26.645 27.7398 26.5442 27.5644 26.4411L27.4371 26.3688C27.2191 26.2418 27.0047 26.1106 26.7922 25.9751L26.5977 25.8454C26.4574 25.7547 26.3176 25.6622 26.1801 25.5692C25.8836 25.3645 25.5949 25.1504 25.3105 24.9333L25.1148 24.779C22.0867 22.3883 19.6859 19.1204 18.5449 15.4153C17.3488 11.5731 17.6066 7.25981 19.6789 3.75903L17.1332 7.35396ZM28.3812 3.4563C26.5445 6.15942 26.3641 9.51646 27.6387 12.5016C28.9828 15.6708 31.7367 18.1563 34.9512 19.3356C35.0836 19.3844 35.2164 19.4282 35.3504 19.4739L35.5266 19.5297C35.716 19.5891 35.9039 19.6583 36.0996 19.6954C44.9824 21.4118 47.3918 15.1372 48.0328 14.2133C45.9226 17.252 42.3758 17.9813 38.0238 16.925C37.6801 16.8418 37.3023 16.7176 36.9711 16.6C36.5461 16.4485 36.1273 16.2758 35.7207 16.0809C34.948 15.7094 34.2113 15.259 33.5285 14.7434C29.6344 11.7883 27.2152 6.152 29.7562 1.56177" fill="#0868AC"/>
</svg>
