<svg width="51" height="53" viewBox="0 0 51 53" fill="none" xmlns="http://www.w3.org/2000/svg">
<path d="M12.4983 29.3547L12.5014 29.3516L12.4983 29.3547Z" fill="black"/>
<path d="M39.6865 22.1398L50.102 5.11987H25.0482L21.5864 10.7932L39.6865 22.1398Z" fill="url(#paint0_linear)"/>
<path opacity="0.15" d="M21.5881 10.7908L23.3612 7.88013L39.6904 22.1396L21.5881 10.7908Z" fill="black"/>
<path d="M45.1958 53V27.4116L39.7902 23.96L28.4233 42.296L45.1958 53Z" fill="url(#paint1_linear)"/>
<path opacity="0.15" d="M28.4253 42.2981L31.2319 44.0891L39.79 23.9642L28.4253 42.2981Z" fill="black"/>
<path d="M4.84155 0V25.5884L10.6385 29.0379L39.6817 22.1367L4.84155 0Z" fill="url(#paint2_linear)"/>
<path d="M10.5176 30.9913L0.102051 47.7241H25.1559L39.7943 23.9642L10.5176 30.9913Z" fill="url(#paint3_linear)"/>
<defs>
<linearGradient id="paint0_linear" x1="45.5317" y1="14.0675" x2="36.7579" y2="-2.47011" gradientUnits="userSpaceOnUse">
<stop stop-color="#80C3E6"/>
<stop offset="1" stop-color="#3380C2"/>
</linearGradient>
<linearGradient id="paint1_linear" x1="49.603" y1="42.6271" x2="34.1422" y2="39.38" gradientUnits="userSpaceOnUse">
<stop stop-color="#F38649"/>
<stop offset="0.185" stop-color="#F28147"/>
<stop offset="0.409" stop-color="#EF7242"/>
<stop offset="0.654" stop-color="#EA5A3A"/>
<stop offset="0.911" stop-color="#E4382E"/>
<stop offset="1" stop-color="#E12A29"/>
</linearGradient>
<linearGradient id="paint2_linear" x1="2.74084" y1="24.3028" x2="25.7242" y2="2.24235" gradientUnits="userSpaceOnUse">
<stop stop-color="#42AB4A"/>
<stop offset="1" stop-color="#ADD155"/>
</linearGradient>
<linearGradient id="paint3_linear" x1="8.92578" y1="53.3434" x2="17.2595" y2="15.5567" gradientUnits="userSpaceOnUse">
<stop stop-color="#42AB4A"/>
<stop offset="1" stop-color="#ADD155"/>
</linearGradient>
</defs>
</svg>
