<svg width="21" height="20" viewBox="0 0 21 20" fill="none" xmlns="http://www.w3.org/2000/svg">
<g clip-path="url(#clip0)">
<path d="M0.875 0.857422H20.1251V19.1443H0.875V0.857422Z" fill="url(#paint0_radial)"/>
<path d="M0.87499 0.858422H20.125V19.1453H0.87499V0.858422ZM0 19.9999H21V0.00390625H0V19.9999ZM14.1575 8.20737C13.4663 8.20737 13.23 8.54916 13.23 8.83116C13.23 9.13878 13.3875 9.35242 14.315 9.82241C15.6888 10.4719 16.1175 11.0957 16.1175 12.01C16.1175 13.3772 15.05 14.1121 13.6063 14.1121C12.845 14.1121 12.1888 13.9583 11.8125 13.7447C11.7513 13.7191 11.7425 13.6764 11.7425 13.608V12.3518C11.7425 12.2664 11.7863 12.2407 11.8476 12.2835C12.3988 12.6338 13.0288 12.7876 13.6063 12.7876C14.2975 12.7876 14.5863 12.5056 14.5863 12.1211C14.5863 11.8135 14.385 11.54 13.5013 11.0957C12.2587 10.5146 11.7425 9.92498 11.7425 8.94226C11.7425 7.8399 12.6263 6.92558 14.1575 6.92558C14.91 6.92558 15.435 7.03668 15.7238 7.16484C15.7938 7.20757 15.8113 7.27592 15.8113 7.33573V8.50641C15.8113 8.57476 15.7675 8.61752 15.68 8.59185C15.295 8.35265 14.7263 8.20737 14.1575 8.20737ZM6.6325 9.22425C6.83376 9.24134 6.99128 9.24134 7.34126 9.24134C8.36506 9.24134 9.32753 8.891 9.32753 7.53231C9.32753 6.44707 8.63627 5.90014 7.47253 5.90014C7.12254 5.90014 6.79002 5.91723 6.6325 5.92578V9.22425ZM5.07503 4.68671C5.07503 4.6269 5.19755 4.58414 5.26751 4.58414C5.82754 4.55851 6.65878 4.54142 7.52503 4.54142C9.94877 4.54142 10.8938 5.8403 10.8938 7.4981C10.8938 9.66858 9.28375 10.6 7.30627 10.6C6.97378 10.6 6.86004 10.5829 6.62375 10.5829V13.8643C6.62375 13.9327 6.59751 13.9669 6.51877 13.9669H5.18002C5.11003 13.9669 5.075 13.9412 5.075 13.8643V4.68671H5.07503Z" fill="#31C5F0"/>
</g>
<defs>
<radialGradient id="paint0_radial" cx="0" cy="0" r="1" gradientUnits="userSpaceOnUse" gradientTransform="translate(7.21503 4.95553) scale(14.63 13.8331)">
<stop stop-color="#34364E" stop-opacity="0.98"/>
<stop offset="1" stop-color="#0C0824"/>
</radialGradient>
<clipPath id="clip0">
<rect width="21" height="20" fill="white"/>
</clipPath>
</defs>
</svg>
