<svg width="50" height="50" viewBox="0 0 50 50" fill="none" xmlns="http://www.w3.org/2000/svg">
<path d="M25 50C38.8071 50 50 38.8071 50 25C50 11.1929 38.8071 0 25 0C11.1929 0 0 11.1929 0 25C0 38.8071 11.1929 50 25 50Z" fill="#CC6699"/>
<path d="M38.4501 13.8988C38.1501 12.6988 37.3001 11.6988 36.0001 10.9988C33.4501 9.64878 29.3501 9.59878 25.6001 10.9488C23.3501 11.7488 19.1001 13.5488 15.9001 16.4988C12.7001 19.4988 12.2001 22.1488 12.4501 23.1988C13.0001 26.0988 16.0501 28.1488 18.4501 29.8488C19.1001 30.2988 19.7001 30.6988 20.1501 31.0988C18.8001 31.7988 15.1501 33.8488 14.1501 35.9988C13.4001 37.6988 13.7501 38.9488 14.0501 39.4988C14.3501 40.1488 14.8501 40.6488 15.3501 40.7988C15.8501 40.9488 16.4001 40.9988 16.9501 40.9988C19.1001 40.9988 21.2001 39.8488 22.5001 37.8988C23.8001 35.9488 23.9001 33.3488 23.3001 31.7488C24.1501 31.5488 25.0501 31.5488 26.0501 31.6488C28.0001 31.8988 28.9501 32.6488 29.4001 33.2488C29.9001 33.8988 30.0001 34.5488 29.9501 34.9488C29.8501 35.6988 29.2501 36.1488 28.9501 36.3488C28.7001 36.4988 28.5001 36.6488 28.5501 36.9488C28.6501 37.3488 29.0501 37.2988 29.2001 37.2988C29.6501 37.1988 31.2501 36.3988 31.3501 34.5988C31.4001 33.4988 30.9501 32.3988 30.1001 31.4988C29.0001 30.3488 27.3501 29.7488 25.4501 29.7988C24.0501 29.7988 23.1001 29.9488 22.3501 30.1988L22.3001 30.1488C21.6001 29.3988 20.6501 28.6988 19.8001 27.9988C17.8001 26.4988 15.9501 25.0488 16.0501 22.8988C16.2001 20.1988 18.8501 17.5488 24.0001 14.9988C28.5501 12.7488 32.2501 12.6488 34.2001 13.3488C35.0001 13.6488 35.5501 14.0488 35.7501 14.4988C36.1501 15.3488 36.0001 16.4488 35.3001 17.6488C34.1501 19.6488 31.2501 22.1488 26.8001 22.6488C24.1001 22.9488 22.9501 21.7488 22.9001 21.6988C22.6001 21.3488 22.4001 21.1488 22.0501 21.3488C21.6501 21.5488 21.8501 22.0988 21.9501 22.2988C22.1501 22.8488 23.0001 23.7988 24.4501 24.2988C25.6001 24.6988 28.5501 24.9488 32.2001 23.5488C36.4001 21.8488 39.3001 17.3488 38.4501 13.8988ZM21.2001 35.1988C21.1501 35.2988 21.1501 35.3988 21.1001 35.4988C21.0501 35.5988 21.0001 35.6988 21.0001 35.7988C20.8001 36.2488 20.5001 36.6988 20.1001 37.0988C18.9501 38.3488 17.4001 38.6988 16.9001 38.3988C16.7501 38.2988 16.7001 38.1488 16.6501 37.9488C16.5501 37.3488 16.9001 36.1488 17.9501 35.0988C19.2001 33.7988 20.9501 32.8488 21.3501 32.6488C21.5001 33.5488 21.4501 34.3988 21.2001 35.1988Z" fill="white"/>
</svg>
