<svg width="51" height="50" viewBox="0 0 51 50" fill="none" xmlns="http://www.w3.org/2000/svg">
<rect width="50" height="50" rx="25" fill="white"/>
<path d="M3.55225 25.0025C3.55225 33.4918 8.48557 40.8275 15.6393 44.3044L5.40903 16.2744C4.18266 19.0206 3.54993 21.9949 3.55225 25.0025V25.0025ZM39.4766 23.9202C39.4766 21.2697 38.5245 19.4342 37.708 18.0055C36.6208 16.2389 35.6023 14.7429 35.6023 12.9763C35.6023 11.0048 37.0971 9.16966 39.2032 9.16966C39.2983 9.16966 39.3885 9.1815 39.4815 9.1868C35.6655 5.69116 30.582 3.55688 24.9986 3.55688C17.5062 3.55688 10.9145 7.40103 7.07972 13.2236C7.58289 13.2387 8.05749 13.2489 8.45986 13.2489C10.7031 13.2489 14.1755 12.9767 14.1755 12.9767C15.3316 12.9085 15.4679 14.6066 14.3134 14.7433C14.3134 14.7433 13.1512 14.88 11.8584 14.9477L19.6683 38.1779L24.362 24.1018L21.0202 14.9473C19.8654 14.8796 18.7713 14.7429 18.7713 14.7429C17.6156 14.6751 17.7511 12.9081 18.9068 12.9763C18.9068 12.9763 22.4485 13.2485 24.5559 13.2485C26.7987 13.2485 30.2715 12.9763 30.2715 12.9763C31.4284 12.9081 31.5643 14.6062 30.409 14.7429C30.409 14.7429 29.2447 14.8796 27.9544 14.9473L35.7047 38.0016L37.8435 30.8532C38.771 27.8868 39.4766 25.7562 39.4766 23.9202V23.9202Z" fill="#00749A"/>
<path d="M25.3746 26.8755L18.9399 45.573C20.9072 46.1528 22.9475 46.4472 24.9983 46.4471C27.4958 46.4471 29.8909 46.015 32.1202 45.2315C32.0604 45.1378 32.0093 45.0389 31.9676 44.936L25.3746 26.8755ZM43.8167 14.7101C43.9089 15.3932 43.9612 16.1269 43.9612 16.9154C43.9612 19.0917 43.5547 21.5381 42.3305 24.5971L35.7795 43.5375C42.1554 39.8195 46.4439 32.9118 46.4439 24.9995C46.4497 21.403 45.5459 17.8635 43.8167 14.7101V14.7101Z" fill="#00749A"/>
<path d="M25 0C11.2154 0 0 11.2145 0 24.9992C0 38.7855 11.2149 50 25 50C38.7842 50 50.0012 38.7859 50.0012 24.9992C50.0008 11.2145 38.7842 0 25 0ZM25 48.8537C11.8475 48.8537 1.14631 38.1525 1.14631 24.9992C1.14631 11.8471 11.8471 1.14671 25 1.14671C38.1521 1.14671 48.8525 11.8471 48.8525 24.9992C48.8525 38.1525 38.1517 48.8537 25 48.8537Z" fill="#00749A"/>
</svg>
