<svg width="22" height="22" viewBox="0 0 22 22" fill="none" xmlns="http://www.w3.org/2000/svg">
<g clip-path="url(#clip0)">
<path d="M21.8062 4.37085L15.134 11L21.8062 17.6292C21.9268 17.3771 22 17.0984 22 16.8008V5.19924C22 4.9016 21.9268 4.62295 21.8062 4.37085Z" fill="white"/>
<path d="M20.0664 3.26562H1.93362C1.63597 3.26562 1.35732 3.3388 1.10522 3.45941L9.63293 11.9442C10.3869 12.6982 11.6131 12.6982 12.3671 11.9442L20.8948 3.45941C20.6427 3.3388 20.3641 3.26562 20.0664 3.26562Z" fill="white"/>
<path d="M0.193789 4.37085C0.0731758 4.62295 0 4.9016 0 5.19924V16.8008C0 17.0984 0.0731758 17.3771 0.193789 17.6292L6.86593 11L0.193789 4.37085Z" fill="white"/>
<path d="M14.2227 11.9114L13.2785 12.8555C12.0222 14.1119 9.97784 14.1119 8.72148 12.8555L7.77737 11.9114L1.10522 18.5406C1.35732 18.6612 1.63597 18.7343 1.93362 18.7343H20.0664C20.3641 18.7343 20.6427 18.6612 20.8948 18.5406L14.2227 11.9114Z" fill="white"/>
</g>
<defs>
<clipPath id="clip0">
<rect width="22" height="22" fill="white"/>
</clipPath>
</defs>
</svg>
