<svg width="22" height="22" viewBox="0 0 22 22" fill="none" xmlns="http://www.w3.org/2000/svg">
<g clip-path="url(#clip0)">
<path d="M21.2255 12.7359C21.8818 7.21114 20.9102 3.72322 19.1575 2.14563L19.1584 2.14472C16.3296 -0.549367 6.77607 -0.948118 3.39174 2.26572C1.87191 3.8378 1.33657 6.14505 1.27791 9.00139C1.21924 11.8586 1.14957 17.2111 6.13716 18.6631H6.14174L6.13716 20.8805C6.13716 20.8805 6.10324 21.7788 6.67707 21.9594C7.33341 22.1721 7.63041 21.755 9.67182 19.3166C13.0855 19.6127 15.7072 18.9344 16.0051 18.8354C16.6944 18.6044 20.5948 18.0883 21.2255 12.7359ZM10.0082 17.7565C10.0082 17.7565 7.84766 20.4506 7.17574 21.15C6.95574 21.3773 6.71466 21.3562 6.71832 20.9052C6.71832 20.6091 6.73482 17.2239 6.73482 17.2239C2.50624 16.0121 2.75557 11.4544 2.80141 9.07014C2.84724 6.68497 3.28357 4.73155 4.57057 3.41613C7.53966 0.632217 15.9152 1.25463 18.0492 3.2603C20.6581 5.57305 19.7295 12.1071 19.735 12.3298C19.1987 16.7976 16.0381 17.0809 15.4569 17.2743C15.2085 17.3568 12.9031 17.9499 10.0082 17.7565V17.7565Z" fill="#8E24AA"/>
<path d="M11.2034 3.93896C10.8505 3.93896 10.8505 4.48897 11.2034 4.49355C13.9415 4.51463 16.1965 6.42313 16.2212 9.92388C16.2212 10.2933 16.7621 10.2887 16.7575 9.9193H16.7566C16.7272 6.14722 14.2651 3.96005 11.2034 3.93896V3.93896Z" fill="#8E24AA"/>
<path d="M14.8052 9.34362C14.7969 9.70845 15.3369 9.72587 15.3414 9.35645C15.3864 7.27653 14.1039 5.56328 11.694 5.3827C11.3411 5.35703 11.3044 5.91162 11.6564 5.93728C13.7464 6.09587 14.8474 7.5222 14.8052 9.34362V9.34362Z" fill="#8E24AA"/>
<path d="M14.2276 11.7094C13.7748 11.4473 13.3137 11.6104 13.123 11.868L12.7243 12.3841C12.5217 12.6463 12.1431 12.6114 12.1431 12.6114C9.38028 11.8809 8.64145 8.98968 8.64145 8.98968C8.64145 8.98968 8.60753 8.59827 8.86053 8.38835L9.3592 7.97585C9.60853 7.77785 9.7662 7.30118 9.51228 6.83277C8.83395 5.60718 8.37837 5.1846 8.14645 4.8601C7.90262 4.55485 7.53595 4.4861 7.15462 4.69235H7.14637C6.35345 5.15618 5.48537 6.02427 5.76312 6.91802C6.23703 7.86035 7.10787 10.8643 9.88353 13.1339C11.1879 14.2074 13.2523 15.3074 14.1286 15.5613L14.1369 15.5741C15.0004 15.8619 15.84 14.9599 16.2883 14.1432V14.1368C16.4872 13.7417 16.4212 13.3677 16.1306 13.1229C15.6154 12.6206 14.8381 12.066 14.2276 11.7094Z" fill="#8E24AA"/>
<path d="M12.0715 7.4287C12.9524 7.48004 13.3796 7.9402 13.4254 8.88529C13.4419 9.2547 13.9782 9.22904 13.9617 8.85962C13.903 7.62579 13.2595 6.93829 12.1008 6.87412C11.7479 6.85304 11.7149 7.40762 12.0715 7.4287V7.4287Z" fill="#8E24AA"/>
</g>
<defs>
<clipPath id="clip0">
<rect width="22" height="22" fill="white"/>
</clipPath>
</defs>
</svg>
