<svg width="303" height="174" viewBox="0 0 303 174" fill="none" xmlns="http://www.w3.org/2000/svg">
<g opacity="0.54" filter="url(#filter0_f)">
<path d="M21.12 145.24C3.73334 145.24 -10.72 139.8 -22.24 128.92C-33.76 117.827 -39.52 103.853 -39.52 87C-39.52 69.9333 -33.8133 55.96 -22.4 45.08C-10.88 34.2 3.62667 28.76 21.12 28.76C32 28.76 41.8667 31.1067 50.72 35.8V59C42.08 53.24 32.2667 50.36 21.28 50.36C10.72 50.36 1.81334 53.8267 -5.44 60.76C-12.48 67.5867 -16 76.3333 -16 87C-16 97.6667 -12.3733 106.467 -5.12 113.4C2.02667 120.227 11.1467 123.64 22.24 123.64C34.5067 123.64 44.7467 120.387 52.96 113.88V137.08C43.8933 142.52 33.28 145.24 21.12 145.24ZM119.321 145.24C102.468 145.24 88.2812 141.24 76.7612 133.24V109.24C81.4546 113.293 87.6412 116.813 95.3212 119.8C103.108 122.68 110.788 124.12 118.361 124.12C124.655 124.12 129.828 123 133.881 120.76C137.935 118.413 139.961 115.213 139.961 111.16C139.961 106.787 138.041 103.693 134.201 101.88C132.601 100.92 130.468 99.96 127.801 99L123.961 97.72L115.001 95L106.681 92.28C105.508 91.96 103.001 91.0533 99.1613 89.56C95.8546 88.28 93.4546 87.16 91.9613 86.2C86.4146 82.36 82.8946 79.1067 81.4012 76.44C78.8412 71.32 77.5612 66.0933 77.5612 60.76C77.5612 50.84 81.3479 43.0533 88.9212 37.4C96.4946 31.64 106.788 28.76 119.801 28.76C132.921 28.76 145.135 31.8533 156.441 38.04V60.44C145.028 53.4 132.921 49.88 120.121 49.88C107.428 49.88 101.081 53.56 101.081 60.92C101.081 64.12 103.055 66.68 107.001 68.6C109.348 69.88 112.388 71 116.121 71.96C121.135 73.3467 125.188 74.52 128.281 75.48C137.561 78.36 145.668 82.2533 152.601 87.16C160.068 92.3867 163.801 100.173 163.801 110.52C163.801 121.293 159.588 129.773 151.161 135.96C142.735 142.147 132.121 145.24 119.321 145.24ZM229.546 145.24C212.693 145.24 198.506 141.24 186.986 133.24V109.24C191.68 113.293 197.866 116.813 205.546 119.8C213.333 122.68 221.013 124.12 228.586 124.12C234.88 124.12 240.053 123 244.106 120.76C248.16 118.413 250.186 115.213 250.186 111.16C250.186 106.787 248.266 103.693 244.426 101.88C242.826 100.92 240.693 99.96 238.026 99L234.186 97.72L225.226 95L216.906 92.28C215.733 91.96 213.226 91.0533 209.386 89.56C206.08 88.28 203.68 87.16 202.186 86.2C196.64 82.36 193.12 79.1067 191.626 76.44C189.066 71.32 187.786 66.0933 187.786 60.76C187.786 50.84 191.573 43.0533 199.146 37.4C206.72 31.64 217.013 28.76 230.026 28.76C243.146 28.76 255.36 31.8533 266.666 38.04V60.44C255.253 53.4 243.146 49.88 230.346 49.88C217.653 49.88 211.306 53.56 211.306 60.92C211.306 64.12 213.28 66.68 217.226 68.6C219.573 69.88 222.613 71 226.346 71.96C231.36 73.3467 235.413 74.52 238.506 75.48C247.786 78.36 255.893 82.2533 262.826 87.16C270.293 92.3867 274.026 100.173 274.026 110.52C274.026 121.293 269.813 129.773 261.386 135.96C252.96 142.147 242.346 145.24 229.546 145.24Z" fill="url(#paint0_linear)" fill-opacity="0.72"/>
</g>
<defs>
<filter id="filter0_f" x="-67.52" y="0.759766" width="369.546" height="172.48" filterUnits="userSpaceOnUse" color-interpolation-filters="sRGB">
<feFlood flood-opacity="0" result="BackgroundImageFix"/>
<feBlend mode="normal" in="SourceGraphic" in2="BackgroundImageFix" result="shape"/>
<feGaussianBlur stdDeviation="14" result="effect1_foregroundBlur"/>
</filter>
<linearGradient id="paint0_linear" x1="-27.6738" y1="-2.00011" x2="301.096" y2="50.8036" gradientUnits="userSpaceOnUse">
<stop stop-color="#6A11CB"/>
<stop offset="1" stop-color="#2575FC"/>
</linearGradient>
</defs>
</svg>
