<svg width="1345" height="612" viewBox="0 0 1345 612" fill="none" xmlns="http://www.w3.org/2000/svg">
<g opacity="0.54" filter="url(#filter0_f)">
<path d="M-14.438 290V75.8H142.54V115.274H29.626V158.726H116.836V197.588H29.626V290H-14.438ZM196.068 290V75.8H295.212C317.856 75.8 335.808 81.716 349.068 93.548C362.328 105.176 368.958 120.374 368.958 139.142C368.958 153.422 364.98 165.866 357.024 176.474C349.272 186.878 338.46 194.222 324.588 198.506L390.685 290H339.582L277.158 203.402H240.132V290H196.068ZM240.132 166.376H292.764C302.76 166.376 310.512 164.132 316.02 159.644C321.732 155.156 324.588 148.73 324.588 140.366C324.588 132.002 321.732 125.576 316.02 121.088C310.512 116.6 302.76 114.356 292.764 114.356H240.132V166.376ZM488.279 233.084C500.927 246.344 516.737 252.974 535.709 252.974C554.681 252.974 570.389 246.344 582.833 233.084C595.481 219.824 601.805 203.096 601.805 182.9C601.805 162.704 595.481 145.976 582.833 132.716C570.389 119.456 554.681 112.826 535.709 112.826C516.737 112.826 500.927 119.456 488.279 132.716C475.835 145.976 469.613 162.704 469.613 182.9C469.613 203.096 475.835 219.824 488.279 233.084ZM614.963 262.154C593.951 283.574 567.533 294.284 535.709 294.284C503.885 294.284 477.365 283.574 456.149 262.154C435.137 240.53 424.631 214.112 424.631 182.9C424.631 151.688 435.137 125.372 456.149 103.952C477.161 82.328 503.681 71.516 535.709 71.516C567.737 71.516 594.257 82.328 615.269 103.952C636.281 125.372 646.787 151.688 646.787 182.9C646.787 214.112 636.179 240.53 614.963 262.154ZM704.937 290V75.8H742.575L850.593 212.888V75.8H893.433V290H857.019L748.083 152.3V290H704.937ZM944.989 75.8H1124.61V115.274H1056.68V290H1012.62V115.274H944.989V75.8Z" fill="url(#paint0_linear)" fill-opacity="0.72"/>
</g>
<g opacity="0.5" filter="url(#filter1_f)">
<path d="M799.212 572H638.562V357.8H795.846V397.274H682.626V438.584H773.814V477.446H682.626V532.526H799.212V572ZM895.8 572H852.654V357.8H890.292L998.31 494.888V357.8H1041.15V572H1004.74L895.8 434.3V572ZM1187.26 572H1107.09V357.8H1187.26C1221.94 357.8 1250.19 367.796 1272.02 387.788C1293.85 407.78 1304.76 433.484 1304.76 464.9C1304.76 496.52 1293.85 522.326 1272.02 542.318C1250.4 562.106 1222.14 572 1187.26 572ZM1151.15 397.274V532.526H1183.59C1207.46 532.526 1226.02 526.61 1239.28 514.778C1252.74 502.742 1259.48 486.116 1259.48 464.9C1259.48 443.684 1252.74 427.16 1239.28 415.328C1226.02 403.292 1207.46 397.274 1183.59 397.274H1151.15Z" fill="url(#paint1_linear)" fill-opacity="0.72"/>
</g>
<defs>
<filter id="filter0_f" x="-54.438" y="31.5156" width="1219.05" height="302.769" filterUnits="userSpaceOnUse" color-interpolation-filters="sRGB">
<feFlood flood-opacity="0" result="BackgroundImageFix"/>
<feBlend mode="normal" in="SourceGraphic" in2="BackgroundImageFix" result="shape"/>
<feGaussianBlur stdDeviation="20" result="effect1_foregroundBlur"/>
</filter>
<filter id="filter1_f" x="598.562" y="317.8" width="746.203" height="294.2" filterUnits="userSpaceOnUse" color-interpolation-filters="sRGB">
<feFlood flood-opacity="0" result="BackgroundImageFix"/>
<feBlend mode="normal" in="SourceGraphic" in2="BackgroundImageFix" result="shape"/>
<feGaussianBlur stdDeviation="20" result="effect1_foregroundBlur"/>
</filter>
<linearGradient id="paint0_linear" x1="34.4081" y1="-0.000216021" x2="1137.39" y2="329.463" gradientUnits="userSpaceOnUse">
<stop stop-color="#6A11CB"/>
<stop offset="1" stop-color="#2575FC"/>
</linearGradient>
<linearGradient id="paint1_linear" x1="658.68" y1="304" x2="1343.4" y2="469.51" gradientUnits="userSpaceOnUse">
<stop stop-color="#6A11CB"/>
<stop offset="1" stop-color="#2575FC"/>
</linearGradient>
</defs>
</svg>
