<svg width="50" height="48" viewBox="0 0 50 48" fill="none" xmlns="http://www.w3.org/2000/svg">
<path d="M48.6658 4.29236L35.3835 43.1826" stroke="url(#paint0_linear)" stroke-width="2"/>
<path d="M34.9397 43.5591L25.5064 29.1996" stroke="url(#paint1_linear)" stroke-width="2"/>
<path d="M44.5791 4.29297L34.7025 35.9601" stroke="url(#paint2_linear)" stroke-width="2"/>
<path d="M34.2573 35.96L25.1656 22.0834" stroke="url(#paint3_linear)" stroke-width="2"/>
<path d="M41.1729 4.29297L33.6804 28.488" stroke="url(#paint4_linear)" stroke-width="2"/>
<path d="M33.6804 28.4873L25.1656 15.6782" stroke="url(#paint5_linear)" stroke-width="2"/>
<path d="M1.32588 4.29236L14.6082 43.1826" stroke="url(#paint6_linear)" stroke-width="2"/>
<path d="M15.0518 43.5591L24.4846 29.1992" stroke="url(#paint7_linear)" stroke-width="2"/>
<path d="M5.4126 4.29297L15.2892 35.9601" stroke="url(#paint8_linear)" stroke-width="2"/>
<path d="M15.7339 35.96L24.4845 22.0834" stroke="url(#paint9_linear)" stroke-width="2"/>
<path d="M8.8186 4.29297L16.3111 28.488" stroke="url(#paint10_linear)" stroke-width="2"/>
<path d="M16.3108 28.4873L24.144 15.6782" stroke="url(#paint11_linear)" stroke-width="2"/>
<path d="M34.7485 43.6089C34.9251 43.5041 35.1039 43.4027 35.2674 43.2759C35.3418 43.2181 35.4071 43.1517 35.4755 43.0868C35.5 43.0635 35.5304 43.0261 35.5645 43.016C35.5979 43.006 35.6358 42.9857 35.6704 42.9834C35.6968 42.9817 35.6809 43.0686 35.6781 43.0841C35.6661 43.1507 35.5939 43.1973 35.551 43.2422C35.5167 43.2779 35.484 43.3138 35.4491 43.3494C35.3935 43.406 35.3258 43.4506 35.2633 43.4983C35.2199 43.5314 35.1797 43.5686 35.1307 43.5917C35.0918 43.6099 35.0518 43.6221 35.0211 43.6541C35.0118 43.6639 34.9812 43.6826 35.0087 43.6916C35.0321 43.6993 35.0716 43.699 35.0944 43.6881C35.1827 43.6462 35.2638 43.6002 35.3458 43.5431C35.3893 43.5127 35.4472 43.4922 35.4839 43.4539C35.5046 43.4322 35.5205 43.4071 35.5411 43.3846C35.5663 43.3569 35.6065 43.3385 35.6404 43.3249C35.6536 43.3196 35.689 43.3096 35.6587 43.3279C35.6345 43.3426 35.6132 43.3654 35.5898 43.3815C35.5634 43.3997 35.532 43.4033 35.507 43.4229" stroke="url(#paint12_linear)" stroke-linecap="round" stroke-linejoin="round"/>
<path d="M35.6982 43.2295C35.6736 43.3043 35.6512 43.3787 35.5876 43.4266C35.5522 43.4533 35.515 43.477 35.4835 43.5089C35.3955 43.5984 35.2766 43.6589 35.1721 43.7244C35.1305 43.7505 35.0722 43.7807 35.0233 43.7807C34.953 43.7807 34.898 43.735 34.8321 43.7187C34.801 43.711 34.7574 43.7031 34.7287 43.6896C34.7079 43.6798 34.6892 43.67 34.6892 43.7015C34.6892 43.7235 34.676 43.7222 34.676 43.7394C34.676 43.7745 34.6613 43.7439 34.6859 43.7639C34.7141 43.7868 34.7575 43.7939 34.783 43.8205C34.804 43.8425 34.732 43.7825 34.7024 43.7807C34.6924 43.7801 34.6677 43.764 34.676 43.7738C34.685 43.7845 34.6988 43.8038 34.7126 43.8079C34.7452 43.8176 34.7759 43.8357 34.8108 43.8423C34.8478 43.8494 34.8888 43.8496 34.9266 43.8496C34.9653 43.8496 35.0335 43.8465 35.0655 43.8186C35.0769 43.8086 35.1003 43.8014 35.1149 43.8014C35.136 43.8014 35.1509 43.79 35.1706 43.7876C35.1936 43.7848 35.2485 43.7437 35.2644 43.7271C35.2864 43.7041 35.3244 43.6867 35.3516 43.6705C35.3887 43.6483 35.4275 43.6223 35.4645 43.5977C35.5258 43.557 35.5591 43.4937 35.6074 43.4377C35.6241 43.4183 35.6504 43.3894 35.6686 43.3742C35.6805 43.3642 35.7037 43.3096 35.7019 43.293C35.7017 43.2906 35.6426 43.3552 35.6356 43.36C35.6161 43.3736 35.6002 43.3926 35.5847 43.4102C35.5718 43.4247 35.5604 43.4431 35.5506 43.4599C35.5453 43.4689 35.5418 43.4951 35.5301 43.4978C35.4637 43.5132 35.5081 43.637 35.4344 43.6498C35.4098 43.6541 35.384 43.6892 35.3652 43.7049C35.3421 43.7242 35.326 43.7472 35.2985 43.76C35.2733 43.7717 35.2247 43.7796 35.2051 43.796C35.1787 43.818 35.1392 43.8339 35.1083 43.8431C35.0955 43.8469 35.083 43.8596 35.0684 43.863C35.0512 43.867 35.03 43.8634 35.0123 43.8634C34.9942 43.8634 34.9814 43.8772 34.9629 43.8772C34.9442 43.8772 34.9255 43.8772 34.9068 43.8772C34.8874 43.8772 34.8694 43.8696 34.8504 43.8649C34.8299 43.8599 34.8082 43.8674 34.7881 43.8599C34.7617 43.8501 34.7635 43.8452 34.7881 43.858C34.8174 43.8733 34.8441 43.8772 34.8764 43.8772C34.8922 43.8772 34.9073 43.8606 34.9233 43.8569C34.9388 43.8533 34.9583 43.8565 34.9742 43.8565C34.9964 43.8565 35.0311 43.8394 35.0482 43.8247C35.07 43.8061 35.1055 43.8005 35.1245 43.7807" stroke="url(#paint13_linear)" stroke-linecap="round" stroke-linejoin="round"/>
<path d="M35.6715 43.374C35.6668 43.3807 35.6619 43.3945 35.6542 43.3981C35.6494 43.4003 35.6442 43.4052 35.6416 43.4101C35.6369 43.4191 35.6394 43.4308 35.6331 43.4382C35.6265 43.4459 35.6266 43.4548 35.6186 43.4631C35.6128 43.4692 35.6053 43.4788 35.5986 43.4832C35.5874 43.4904 35.5808 43.513 35.5679 43.5215C35.5525 43.5315 35.5491 43.5558 35.5274 43.5623C35.5141 43.5662 35.4944 43.5901 35.4913 43.6046C35.4864 43.6275 35.4606 43.6504 35.4412 43.6605C35.4032 43.6804 35.3765 43.72 35.3337 43.7349" stroke="url(#paint14_linear)" stroke-linecap="round" stroke-linejoin="round"/>
<path d="M14.2966 43.125C14.323 43.1624 14.3424 43.2185 14.3152 43.264C14.3045 43.282 14.2873 43.2908 14.3004 43.3154C14.3158 43.3444 14.3271 43.3904 14.3342 43.4242C14.3434 43.4675 14.4029 43.5138 14.4305 43.5412C14.4899 43.5999 14.6153 43.6114 14.6909 43.6128C14.7954 43.6148 14.8556 43.5485 14.8834 43.4462C14.8985 43.391 14.9159 43.2738 14.8694 43.2252C14.8426 43.1972 14.7744 43.2173 14.7471 43.2243C14.6626 43.246 14.5425 43.2808 14.4966 43.3676C14.4177 43.517 14.628 43.6007 14.7264 43.6223C14.7736 43.6327 14.831 43.6624 14.8801 43.65C14.9426 43.6341 15.0011 43.6282 15.0653 43.6206C15.1266 43.6134 15.2115 43.5955 15.2665 43.5645C15.2868 43.5531 15.2859 43.6055 15.2859 43.6185C15.2859 43.6364 15.2671 43.6477 15.264 43.6655C15.258 43.7003 15.3029 43.6767 15.3194 43.6767C15.3539 43.6767 15.3454 43.6746 15.3454 43.7039C15.3454 43.7253 15.3297 43.7414 15.3297 43.7583C15.3297 43.764 15.2405 43.7866 15.2335 43.8123C15.2311 43.821 15.2078 43.8467 15.2025 43.8537C15.2 43.8569 15.1848 43.8665 15.1851 43.8693C15.1861 43.8772 15.2099 43.8685 15.2132 43.865C15.2248 43.8528 15.2246 43.8259 15.2487 43.8244C15.2769 43.8227 15.2246 43.8415 15.2157 43.846C15.2012 43.8531 15.0083 43.9238 15.0198 43.9392C15.0381 43.9638 15.1114 43.9278 15.1297 43.9254C15.1432 43.9236 15.1576 43.898 15.1706 43.8904C15.1768 43.8868 15.2125 43.8717 15.2041 43.8827C15.1938 43.8961 15.1656 43.8805 15.152 43.8982C15.1397 43.9144 15.1114 43.8995 15.1078 43.8827C15.0977 43.8351 15.0824 43.8477 15.0442 43.8477C14.9933 43.8477 14.9364 43.8552 14.8863 43.8434C14.7827 43.8189 14.68 43.8075 14.5905 43.7428C14.5649 43.7243 14.5325 43.7171 14.5066 43.7001C14.4916 43.6902 14.4455 43.6662 14.49 43.669C14.5011 43.6696 14.5276 43.7131 14.533 43.7234C14.5422 43.7406 14.5577 43.7379 14.5702 43.7484C14.5891 43.7642 14.5865 43.8009 14.6053 43.8166C14.6284 43.8359 14.6376 43.8428 14.6648 43.8555C14.7099 43.8764 14.7447 43.9332 14.7987 43.9332C14.8275 43.9332 14.8488 43.9487 14.8785 43.9487C14.9104 43.9487 14.9407 43.9565 14.9735 43.9565C14.9814 43.9565 15.0393 43.9549 15.0107 43.9565C14.9808 43.9581 14.9525 43.9661 14.9215 43.9643C14.8809 43.9619 14.8071 43.9361 14.7743 43.9081C14.7527 43.8896 14.732 43.8666 14.7115 43.846C14.6941 43.8285 14.662 43.7885 14.6405 43.7795C14.6288 43.7746 14.5471 43.7469 14.5752 43.7385C14.6013 43.7307 14.6228 43.7048 14.6475 43.6957C14.6582 43.6918 14.7575 43.6548 14.7053 43.6616C14.676 43.6655 14.6591 43.7 14.6533 43.7273C14.6465 43.7592 14.6169 43.7702 14.5942 43.7821C14.5617 43.799 14.5783 43.8025 14.5462 43.7929C14.5448 43.7924 14.5152 43.7566 14.509 43.7501C14.4946 43.735 14.5026 43.7126 14.4917 43.6983C14.4821 43.6858 14.4623 43.6664 14.4545 43.6534C14.4438 43.6355 14.4487 43.618 14.4396 43.599C14.4333 43.5857 14.4099 43.5752 14.4082 43.5602C14.4069 43.5483 14.3933 43.547 14.3933 43.5369C14.3933 43.5182 14.4263 43.5553 14.4305 43.5602C14.4485 43.5809 14.4563 43.6105 14.4768 43.6318C14.5379 43.6956 14.675 43.7369 14.7553 43.7225C14.8926 43.6979 14.9001 43.5575 14.9471 43.4488C14.9775 43.3784 15.0192 43.3165 15.0562 43.2502C15.061 43.2415 15.0628 43.2356 15.0628 43.226" stroke="url(#paint15_linear)" stroke-linecap="round" stroke-linejoin="round"/>
<path d="M24.2305 28.9614C24.3039 28.8632 24.3823 28.8729 24.5067 28.8712C24.6065 28.8699 24.7072 28.8741 24.8065 28.8606C24.8261 28.8579 24.8601 28.8449 24.881 28.8516C24.9352 28.869 24.7414 29.0783 24.7276 29.0925C24.7142 29.1063 24.6356 29.1694 24.6386 29.199C24.6447 29.2592 24.7622 29.2445 24.7989 29.2432C24.8644 29.241 24.9467 29.2435 25.0086 29.2186C25.0369 29.2072 25.0593 29.2158 25.0741 29.2432C25.088 29.2692 24.8618 29.292 24.9437 29.2371C25.0675 29.1542 25.2163 29.0761 25.3567 29.0315C25.4183 29.0119 25.434 29.0573 25.479 29.0914C25.4951 29.1037 25.4045 29.1113 25.4516 29.1222C25.4698 29.1265 25.4876 29.079 25.5004 29.0673C25.519 29.0505 25.5443 29.0364 25.5675 29.0275C25.6014 29.0145 25.6264 28.9929 25.6613 28.9794C25.6979 28.9652 25.7017 28.9292 25.657 28.9435C25.5704 28.9713 25.6609 28.8842 25.6956 28.9132C25.709 28.9244 25.7419 28.939 25.7482 28.9513C25.7544 28.9635 25.7526 28.942 25.746 28.9413C25.7142 28.9376 25.685 28.9215 25.6549 28.911C25.5931 28.8895 25.5394 28.866 25.4811 28.8359C25.4153 28.8021 25.3091 28.7451 25.2344 28.7496C25.1669 28.7538 25.3949 28.8098 25.4371 28.7547C25.4437 28.7462 25.5148 28.7427 25.524 28.7547C25.5385 28.7737 25.5757 28.7981 25.5959 28.8102C25.6127 28.8202 25.6374 28.8297 25.6495 28.8455C25.6678 28.8694 25.6942 28.8657 25.664 28.8404C25.6456 28.8251 25.6378 28.8035 25.6152 28.79C25.6036 28.783 25.5709 28.7554 25.5626 28.7446C25.5253 28.6959 25.4677 28.6571 25.4178 28.6236C25.2352 28.501 24.9791 28.5222 24.7957 28.6331C24.733 28.671 24.6756 28.715 24.6145 28.7558C24.5534 28.7965 24.4878 28.8263 24.4278 28.8662C24.4052 28.8812 24.3599 28.8884 24.3324 28.8802C24.2849 28.866 24.3442 28.8381 24.3463 28.8354C24.3717 28.8021 24.4166 28.7765 24.4353 28.7396C24.4536 28.7035 24.5044 28.6603 24.5394 28.641C24.6269 28.5925 24.7264 28.4673 24.829 28.4673C24.8786 28.4673 24.9207 28.4471 24.9689 28.4471C25.0226 28.4471 25.0682 28.437 25.1234 28.437C25.1616 28.437 25.2151 28.4777 25.2484 28.4975C25.2807 28.5168 25.3259 28.5413 25.3503 28.5732C25.3695 28.5983 25.442 28.6433 25.3964 28.6791C25.3721 28.6981 25.3493 28.7134 25.3213 28.7272C25.2677 28.7537 25.2879 28.7532 25.2923 28.7093C25.296 28.6734 25.3234 28.6589 25.3213 28.6185C25.32 28.595 25.3024 28.5661 25.3138 28.5379C25.3312 28.4946 25.3527 28.5177 25.302 28.5177C25.2911 28.5177 25.264 28.5231 25.2559 28.5155C25.2466 28.5068 25.2618 28.4898 25.2441 28.4874C25.2266 28.4852 25.241 28.4685 25.2323 28.4594C25.2239 28.4507 25.2168 28.4553 25.2344 28.465C25.2584 28.4783 25.278 28.4903 25.3041 28.4998C25.359 28.5196 25.3889 28.5423 25.4275 28.5782C25.4466 28.5959 25.4746 28.6055 25.4929 28.6208C25.5088 28.6341 25.5083 28.657 25.5219 28.6712C25.5501 28.7007 25.5836 28.733 25.6012 28.7698" stroke="url(#paint16_linear)" stroke-linecap="round" stroke-linejoin="round"/>
<path d="M14.9336 35.8857C14.9508 35.9629 15.0083 36.0197 15.0083 36.1C15.0083 36.1247 15.0179 36.1448 15.019 36.1644C15.0209 36.1982 15.03 36.1784 15.0166 36.1533C15.0142 36.1487 14.973 36.1156 14.9787 36.1112C14.9874 36.1043 15.02 36.1688 15.0273 36.1781C15.046 36.202 15.083 36.2692 15.083 36.2982C15.083 36.3593 15.1259 36.3862 15.1387 36.4369C15.1468 36.4688 15.1773 36.499 15.179 36.5323C15.1804 36.558 15.1881 36.587 15.198 36.6104C15.2237 36.6708 15.2802 36.7183 15.2988 36.7825C15.3128 36.831 15.3333 36.7816 15.351 36.759C15.4028 36.6927 15.4497 36.6268 15.4956 36.5559C15.5569 36.4611 15.606 36.3483 15.6841 36.2672C15.7691 36.1791 15.8465 36.1009 15.9142 35.996C15.953 35.9357 15.9928 35.8625 15.9675 35.7879C15.9218 35.6531 15.7856 35.7892 15.7185 35.8386C15.6114 35.9176 15.4901 36.0271 15.4268 36.1533C15.4153 36.1763 15.4136 36.2786 15.4375 36.2933C15.4831 36.3211 15.6226 36.3036 15.6747 36.2933C15.7476 36.2787 15.8263 36.228 15.894 36.2202C15.9525 36.2134 15.9822 36.197 15.9497 36.2648C15.9289 36.3083 15.8871 36.3359 15.8644 36.3762C15.8473 36.4065 15.7783 36.4779 15.7766 36.51C15.7726 36.5856 15.6706 36.6595 15.6355 36.7218C15.5954 36.793 15.5035 36.8649 15.4351 36.9027C15.3457 36.9522 15.335 36.8572 15.294 36.7887C15.2762 36.759 15.2571 36.732 15.2407 36.6995C15.2234 36.6654 15.1864 36.6413 15.1707 36.6104C15.1547 36.5788 15.1403 36.5205 15.1363 36.4877C15.1345 36.4722 15.1159 36.4588 15.115 36.4431C15.1138 36.4217 15.1196 36.4017 15.1067 36.3849C15.0871 36.3593 15.0741 36.3072 15.0723 36.2759C15.0718 36.2675 15.0538 36.2257 15.0427 36.2338C15.0163 36.2531 15.0491 36.2481 15.051 36.2648C15.0555 36.3046 15.0478 36.3345 15.0747 36.3626C15.0989 36.3879 15.078 36.4408 15.1067 36.4741C15.1166 36.4856 15.1461 36.5493 15.147 36.5658C15.1497 36.613 15.1978 36.6295 15.2004 36.6773C15.2013 36.6938 15.2082 36.7127 15.2193 36.7243C15.2352 36.7409 15.2233 36.7602 15.2348 36.7751C15.2474 36.7916 15.2341 36.8161 15.2454 36.8309C15.2581 36.8473 15.2639 36.8604 15.2751 36.8779" stroke="url(#paint17_linear)" stroke-linecap="round" stroke-linejoin="round"/>
<path d="M33.9385 35.9326C33.9555 35.9548 33.9789 35.9659 33.9977 35.9856C34.0185 36.0073 34.0258 36.0385 34.0523 36.0559C34.0656 36.0647 34.0812 36.0678 34.0966 36.0696C34.1429 36.0749 34.1917 36.0746 34.238 36.0722C34.313 36.0684 34.3836 36.0546 34.4176 35.9765C34.4296 35.949 34.4377 35.9121 34.435 35.8818C34.432 35.8492 34.4135 35.7906 34.3733 35.7891C34.3481 35.7881 34.3348 35.8132 34.325 35.832C34.2974 35.885 34.2789 35.9581 34.276 36.018C34.2741 36.0588 34.2793 36.1169 34.3123 36.147C34.3937 36.2213 34.5369 36.1903 34.6275 36.1659C34.6767 36.1527 34.8919 36.0901 34.8227 35.985C34.8111 35.9673 34.7838 35.9544 34.766 35.9491C34.7001 35.9295 34.6271 35.9301 34.5604 35.943C34.5143 35.952 34.4224 35.9762 34.4157 36.0402C34.4104 36.0913 34.4559 36.1357 34.5029 36.1341C34.5439 36.1327 34.5856 36.1133 34.6221 36.097C34.6718 36.0747 34.7236 36.0493 34.7695 36.0188C34.7775 36.0134 34.7872 36.0062 34.7911 35.9962C34.793 35.9912 34.7922 35.9771 34.7878 35.9801C34.7817 35.9844 34.7708 36.0077 34.7704 36.0085C34.7475 36.0531 34.7262 36.0987 34.705 36.1442C34.6809 36.196 34.658 36.2482 34.6308 36.2983C34.6178 36.3223 34.6075 36.3211 34.5839 36.3336C34.5382 36.3577 34.5134 36.3899 34.4608 36.3735C34.4167 36.3597 34.3729 36.3466 34.3281 36.3352C34.3144 36.3317 34.3097 36.3288 34.3009 36.3187C34.2833 36.2983 34.2562 36.2962 34.2375 36.2786C34.2155 36.2579 34.1915 36.2366 34.164 36.2244C34.149 36.2177 34.0533 36.1348 34.0426 36.1683" stroke="url(#paint18_linear)" stroke-linecap="round" stroke-linejoin="round"/>
<path d="M34.0152 36.1467C34.0115 36.1571 34.0109 36.183 33.9961 36.183C33.9852 36.183 34.0001 36.1926 34.0032 36.1959C34.0182 36.2115 34.0279 36.2326 34.0447 36.2462C34.0617 36.26 34.0709 36.281 34.0862 36.297C34.1038 36.3154 34.1209 36.3333 34.1385 36.3516C34.1539 36.3678 34.1614 36.3893 34.1819 36.4006C34.2067 36.4143 34.2236 36.4336 34.2451 36.4514C34.2678 36.4701 34.2879 36.4931 34.3096 36.5139C34.3372 36.5403 34.3738 36.5686 34.4126 36.5675C34.426 36.5671 34.4432 36.5665 34.451 36.5548C34.4664 36.5315 34.4917 36.5316 34.5136 36.5181C34.5394 36.5022 34.5702 36.4878 34.5929 36.4679C34.6063 36.4562 34.6159 36.4416 34.6288 36.4296C34.6497 36.4102 34.6754 36.3981 34.6971 36.38C34.7155 36.3647 34.7291 36.3441 34.7426 36.3242C34.759 36.3 34.7812 36.2843 34.8005 36.263C34.821 36.2403 34.8397 36.2174 34.8616 36.1959C34.8836 36.1743 34.908 36.1473 34.923 36.1199C34.9383 36.0918 34.967 36.0803 34.9926 36.0635C35.0111 36.0513 35.0065 36.0891 35.0082 36.0868C35.0105 36.0839 35.0128 36.0755 35.015 36.0834C35.0159 36.0868 35.0144 36.0905 35.0154 36.0939C35.0163 36.0973 35.0188 36.0936 35.0184 36.0945C35.0141 36.1058 35.0006 36.1191 34.9943 36.1306C34.9849 36.1478 34.9708 36.1629 34.9631 36.1811C34.9543 36.2019 34.94 36.2196 34.9284 36.2382C34.921 36.25 34.9183 36.2666 34.9068 36.2753C34.8902 36.2877 34.8828 36.3099 34.8736 36.3281C34.8658 36.3434 34.851 36.3592 34.8408 36.3732C34.8273 36.3916 34.8133 36.4086 34.8014 36.428C34.7946 36.4392 34.7918 36.4537 34.7841 36.4641C34.7794 36.4703 34.7712 36.4788 34.7686 36.486C34.7625 36.5038 34.7428 36.5147 34.7305 36.5276C34.7161 36.5426 34.7083 36.5616 34.694 36.5765C34.6774 36.5939 34.6564 36.6063 34.6394 36.6227C34.6143 36.647 34.5808 36.6509 34.548 36.6509C34.5288 36.6509 34.4981 36.6574 34.4805 36.6501C34.4616 36.6422 34.4415 36.6353 34.4222 36.6283C34.4021 36.621 34.3742 36.6005 34.3624 36.5828C34.3528 36.5683 34.3391 36.5515 34.3242 36.5429C34.3124 36.536 34.3032 36.5226 34.293 36.513C34.2873 36.5078 34.2597 36.4992 34.2652 36.4877" stroke="url(#paint19_linear)" stroke-linecap="round" stroke-linejoin="round"/>
<path d="M33.5945 28.2432C33.6071 28.2759 33.6176 28.3093 33.6262 28.3435C33.6316 28.365 33.6359 28.3868 33.6422 28.4081C33.6443 28.4152 33.6529 28.4291 33.6506 28.4376C33.6394 28.4784 33.6183 28.5214 33.5771 28.5277C33.5038 28.5388 33.4453 28.5099 33.4274 28.6013C33.4212 28.633 33.4089 28.654 33.4089 28.6869C33.4089 28.7218 33.4517 28.7407 33.4727 28.7663C33.4905 28.7879 33.5146 28.8108 33.5408 28.8212C33.5859 28.8392 33.6382 28.8018 33.6663 28.7663C33.6822 28.7462 33.6936 28.7282 33.7138 28.7113C33.752 28.6792 33.8002 28.658 33.8326 28.6189C33.8654 28.5793 33.9139 28.5657 33.9519 28.5339C33.9799 28.5106 34.0094 28.4844 34.0094 28.5339C34.0094 28.5538 34.0258 28.5582 34.0116 28.5772C33.988 28.6089 33.9863 28.6453 33.9585 28.6744C33.9257 28.7086 33.9159 28.765 33.8727 28.7901C33.8393 28.8095 33.8192 28.8356 33.78 28.8462C33.7463 28.8552 33.7179 28.8705 33.6823 28.8651C33.6574 28.8614 33.6328 28.845 33.6075 28.845C33.5962 28.845 33.6286 28.836 33.6373 28.8286C33.6682 28.8022 33.7229 28.7657 33.7312 28.7226" stroke="url(#paint20_linear)" stroke-linecap="round" stroke-linejoin="round"/>
<path d="M16.2618 28.3745C16.2618 28.4628 16.2712 28.5619 16.227 28.6419C16.1897 28.7095 16.1223 28.678 16.0755 28.6521C16.0576 28.6422 16.0392 28.6359 16.0212 28.6276C16.0003 28.6178 16.0047 28.6174 16.0066 28.6335C16.0099 28.6609 16.0637 28.6681 16.0828 28.6733C16.1578 28.6934 16.2112 28.7759 16.2987 28.7359C16.3317 28.7208 16.3667 28.6968 16.4003 28.6868C16.4295 28.6781 16.471 28.6655 16.4984 28.6525C16.5166 28.6439 16.5381 28.6383 16.5571 28.6339C16.5863 28.6271 16.5789 28.6457 16.5915 28.6623C16.6131 28.6904 16.5557 28.7003 16.5389 28.7113C16.5255 28.7201 16.5197 28.7393 16.5008 28.7401C16.4792 28.741 16.4615 28.7477 16.44 28.7477C16.4037 28.7477 16.3629 28.7553 16.3238 28.7553C16.3043 28.7553 16.2909 28.7583 16.2728 28.7625C16.2517 28.7674 16.2403 28.7527 16.2221 28.7473C16.2078 28.743 16.1963 28.7136 16.1776 28.7101C16.1594 28.7066 16.1496 28.6996 16.1338 28.6948C16.1184 28.6902 16.1004 28.6822 16.0836 28.6872C16.0754 28.6897 16.1032 28.7268 16.1087 28.7325C16.1583 28.7843 16.2483 28.7706 16.3129 28.7706C16.3514 28.7706 16.3822 28.7642 16.4186 28.7558C16.4547 28.7474 16.4883 28.7526 16.5243 28.7401" stroke="url(#paint21_linear)" stroke-linecap="round" stroke-linejoin="round"/>
<path d="M24.6479 22.0384C24.6587 22.0231 24.6665 22.0091 24.6745 21.9927" stroke="url(#paint22_linear)" stroke-linecap="round" stroke-linejoin="round"/>
<path d="M24.614 21.7871C24.5219 21.8294 24.4445 21.8856 24.3591 21.9381C24.3451 21.9467 24.2373 22.0166 24.2373 21.9784C24.2373 21.9595 24.2408 21.9363 24.2369 21.9178C24.2351 21.9092 24.2162 21.9087 24.2117 21.8944" stroke="url(#paint23_linear)" stroke-linecap="round" stroke-linejoin="round"/>
<path d="M24.9561 22.0287C24.9352 22.0806 24.9147 22.1002 24.9694 22.1002C25.0416 22.1002 25.0481 22.0782 25.0669 22.0029C25.0729 21.979 25.0656 21.8974 25.0816 21.8807C25.0983 21.8632 25.1433 21.8362 25.1668 21.8325C25.2584 21.8177 25.23 21.9823 25.23 22.0376" stroke="url(#paint24_linear)" stroke-linecap="round" stroke-linejoin="round"/>
<path d="M25.3754 21.9126C25.375 21.8931 25.3744 21.7905 25.3749 21.7923C25.3797 21.8099 25.3905 21.8171 25.403 21.8301C25.4191 21.8469 25.4156 21.8562 25.3968 21.8365C25.3734 21.8122 25.3598 21.7867 25.3392 21.7605C25.3013 21.7122 25.2377 21.6607 25.1871 21.6284C25.1545 21.6076 25.1007 21.5534 25.0924 21.5146C25.091 21.5077 25.0687 21.4773 25.091 21.5032C25.1028 21.5169 25.1176 21.5344 25.1314 21.5459C25.1481 21.5598 25.1836 21.5883 25.1956 21.6041C25.2056 21.6171 25.2208 21.6219 25.2318 21.6334C25.2399 21.6419 25.2573 21.6747 25.2422 21.6517C25.2118 21.6055 25.1912 21.5679 25.1509 21.53C25.1297 21.5101 25.1012 21.4436 25.0758 21.4386C25.0575 21.435 25.0432 21.4147 25.0187 21.4113C24.984 21.4065 24.9557 21.3939 24.9198 21.3939C24.8919 21.3939 24.864 21.3939 24.8361 21.3939C24.7922 21.3939 24.7524 21.4215 24.7097 21.4317C24.6819 21.4383 24.6512 21.4555 24.6264 21.4699C24.6087 21.4803 24.6004 21.4937 24.586 21.5082C24.5718 21.5225 24.5513 21.5243 24.5366 21.5375C24.5078 21.5633 24.4667 21.5738 24.4377 21.5996C24.4205 21.6148 24.4048 21.6337 24.3868 21.6483C24.3681 21.6634 24.3254 21.709 24.3226 21.7337C24.3196 21.7605 24.2695 21.7978 24.256 21.8231C24.2465 21.841 24.2382 21.8576 24.2242 21.8723C24.2201 21.8765 24.1825 21.9328 24.199 21.9255C24.2201 21.916 24.2381 21.8935 24.2541 21.8768C24.274 21.856 24.2743 21.8289 24.2926 21.8097C24.3316 21.769 24.3639 21.7231 24.3992 21.6801C24.4263 21.647 24.4508 21.6089 24.4681 21.5683C24.476 21.5497 24.4867 21.539 24.5004 21.5261C24.5074 21.5195 24.5405 21.4779 24.5214 21.4943C24.5045 21.5087 24.4798 21.5168 24.4643 21.533C24.4527 21.5452 24.4474 21.5626 24.4358 21.5747C24.4301 21.5807 24.4006 21.6093 24.4006 21.613C24.4006 21.6337 24.4475 21.574 24.4491 21.5728C24.4866 21.5445 24.4981 21.4836 24.5366 21.4585C24.5719 21.4354 24.5955 21.3993 24.6345 21.376C24.6989 21.3376 24.7697 21.2866 24.849 21.2866C24.9155 21.2866 24.9811 21.3362 25.0311 21.378C25.0627 21.4045 25.0941 21.4417 25.1205 21.4724C25.1426 21.4981 25.1704 21.5194 25.1871 21.5499C25.2181 21.6067 25.2713 21.6505 25.2983 21.7069" stroke="url(#paint25_linear)" stroke-linecap="round" stroke-linejoin="round"/>
<path d="M24.636 15.6919C24.6842 15.7369 24.7323 15.7536 24.7898 15.7799C24.8067 15.7876 24.8648 15.8382 24.8192 15.842C24.7465 15.8481 24.6442 15.8326 24.5765 15.8043C24.5236 15.7822 24.4081 15.725 24.3833 15.6765C24.3437 15.5991 24.2468 15.6059 24.1733 15.5836C24.1059 15.5631 24.0261 15.5434 23.962 15.513C23.9489 15.5068 23.8896 15.4755 23.8865 15.4592C23.8862 15.4577 23.9508 15.446 23.9594 15.4404C23.9746 15.4304 23.9908 15.4136 23.9981 15.3964C24.0141 15.3588 23.8932 15.4218 23.9834 15.337C24.0159 15.3064 24.0544 15.282 24.0824 15.2455C24.1128 15.2057 24.2024 15.2141 24.2429 15.2141C24.3848 15.2141 24.5329 15.2893 24.6628 15.3426C24.7438 15.3758 24.8295 15.4463 24.8954 15.5053C24.9503 15.5545 24.9862 15.6258 25.0452 15.6695C25.0623 15.6822 25.0837 15.7013 25.0807 15.7254C25.0719 15.7938 25.0693 15.7976 25.1388 15.7924C25.1818 15.7892 25.2228 15.712 25.2518 15.6835C25.2681 15.6675 25.2508 15.6609 25.2498 15.6416C25.2483 15.6128 25.2444 15.5747 25.2672 15.5542C25.2937 15.5305 25.322 15.5476 25.3454 15.5109C25.364 15.4818 25.4562 15.4404 25.3795 15.4404C25.3073 15.4404 25.3122 15.3886 25.2973 15.3342C25.2957 15.3285 25.2791 15.3194 25.2926 15.3153C25.2963 15.3142 25.3294 15.3139 25.3194 15.3244C25.3019 15.3427 25.2639 15.3125 25.2525 15.2993C25.2313 15.2747 25.1863 15.2114 25.1783 15.1819C25.1687 15.1467 25.1293 15.0783 25.1027 15.0534C25.0916 15.0429 25.0624 15.0224 25.0579 15.0059C25.0478 14.9691 25.0742 15.0023 25.0813 15.0192C25.0963 15.0543 25.1531 15.1004 25.1776 15.1323C25.1862 15.1436 25.2361 15.1757 25.1856 15.161C25.1519 15.1511 25.1338 15.1183 25.1174 15.0911C25.0784 15.0264 25.0424 14.9596 24.9911 14.906C24.9307 14.8429 24.884 14.7614 24.7925 14.7614C24.7303 14.7614 24.6681 14.7614 24.6059 14.7614C24.5463 14.7614 24.4771 14.8113 24.4341 14.8522C24.3979 14.8865 24.3516 14.9478 24.3057 14.9752C24.2338 15.0181 24.1777 15.1085 24.1305 15.17C24.1006 15.2092 24.0598 15.273 24.0195 15.2993C24.0153 15.3021 24.0216 15.246 24.0222 15.2392C24.024 15.2193 24.0386 15.2212 24.0463 15.2071C24.0604 15.1813 24.0756 15.1604 24.0831 15.133C24.0925 15.0986 24.1432 15.0467 24.164 15.0227C24.186 14.9971 24.1937 14.9776 24.2208 14.9556C24.243 14.9375 24.261 14.9183 24.275 14.8927C24.288 14.8689 24.324 14.8524 24.3472 14.8396C24.3691 14.8275 24.3697 14.8063 24.3859 14.7893C24.4163 14.7577 24.4652 14.7518 24.4916 14.7174C24.5373 14.6578 24.7307 14.6214 24.7804 14.6734" stroke="url(#paint26_linear)" stroke-linecap="round" stroke-linejoin="round"/>
<path d="M48.3416 4.23978C48.3446 4.22341 48.3459 4.20875 48.3459 4.19229C48.3459 4.1812 48.3545 4.1745 48.3545 4.16516C48.3545 4.13051 48.3714 4.15197 48.3892 4.15938C48.4266 4.17503 48.4703 4.17553 48.5089 4.18802C48.5346 4.19631 48.5598 4.20359 48.5849 4.21315C48.6263 4.22888 48.6652 4.25414 48.7061 4.27143C48.763 4.29548 48.817 4.33068 48.875 4.34932C48.9005 4.35752 48.9187 4.36937 48.9416 4.37997C48.953 4.38525 48.9862 4.38836 48.9909 4.39806" stroke="url(#paint27_linear)" stroke-linecap="round" stroke-linejoin="round"/>
<path d="M48.9738 4.37988C48.9581 4.36796 48.9514 4.36631 48.9329 4.36631C48.9184 4.36631 48.9175 4.35937 48.9175 4.34596C48.9175 4.32657 48.9375 4.33579 48.9497 4.33943C48.956 4.3413 48.9564 4.35159 48.9564 4.33692C48.9564 4.32945 48.9582 4.32275 48.9629 4.31682C48.9712 4.30642 48.959 4.28457 48.9567 4.2736C48.9489 4.23716 48.9217 4.20302 48.8975 4.17386C48.8733 4.14471 48.8407 4.12985 48.8071 4.11557C48.7822 4.10495 48.7577 4.09259 48.7321 4.08392C48.7088 4.07604 48.7028 4.0552 48.678 4.04975C48.6128 4.03542 48.545 4.0407 48.4781 4.0407C48.457 4.0407 48.4497 4.05092 48.4348 4.06331C48.4272 4.06972 48.4196 4.08593 48.4089 4.08593C48.3879 4.08593 48.4224 4.06318 48.424 4.06105C48.4337 4.04845 48.4365 4.04409 48.4521 4.04045C48.4598 4.03868 48.4782 4.0208 48.4868 4.01583C48.4988 4.00884 48.5163 4.00904 48.5301 4.00904C48.5414 4.00904 48.5543 4 48.5669 4C48.5813 4 48.5957 4 48.6101 4C48.6246 4 48.639 4 48.6534 4C48.6729 4 48.6858 4.00827 48.7044 4.00904C48.7645 4.01156 48.8121 4.03927 48.8655 4.06884C48.8878 4.08118 48.9064 4.10847 48.9237 4.12663C48.9405 4.14412 48.9664 4.17324 48.9694 4.19899C48.9702 4.20518 48.9796 4.2292 48.9834 4.23416C48.9907 4.24377 48.9856 4.26193 48.992 4.27034C48.9964 4.27605 48.9993 4.30032 48.9997 4.30752C49.0006 4.32248 48.9997 4.33776 48.9997 4.35275" stroke="url(#paint28_linear)" stroke-linecap="round" stroke-linejoin="round"/>
<path d="M8.5194 4.39844C8.53509 4.38651 8.54179 4.38487 8.56029 4.38487C8.57475 4.38487 8.57568 4.37792 8.57568 4.36452C8.57568 4.34513 8.55564 4.35435 8.54345 4.35799C8.53718 4.35986 8.53672 4.37014 8.53672 4.35547C8.53672 4.34801 8.53496 4.34131 8.53022 4.33537C8.52193 4.32498 8.53414 4.30313 8.53648 4.29216C8.54423 4.25571 8.57145 4.22157 8.59564 4.19242C8.61982 4.16327 8.65251 4.14841 8.68606 4.13413C8.71101 4.12351 8.73544 4.11114 8.76109 4.10247C8.78439 4.0946 8.79039 4.07376 8.81521 4.0683C8.88032 4.05398 8.9482 4.05926 9.01505 4.05926C9.03613 4.05926 9.04351 4.06947 9.05834 4.08187C9.066 4.08827 9.07354 4.10448 9.08431 4.10448C9.1053 4.10448 9.07079 4.08174 9.06916 4.07961C9.05951 4.067 9.05668 4.06264 9.04103 4.059C9.0334 4.05723 9.01497 4.03936 9.00639 4.03438C8.99436 4.0274 8.97682 4.0276 8.96311 4.0276C8.95176 4.0276 8.93888 4.01855 8.92631 4.01855C8.91188 4.01855 8.89745 4.01855 8.88302 4.01855C8.86859 4.01855 8.85416 4.01855 8.83974 4.01855C8.82027 4.01855 8.80733 4.02682 8.78875 4.0276C8.72867 4.03011 8.68108 4.05783 8.62762 4.0874C8.60532 4.09973 8.5868 4.12703 8.56942 4.14518C8.55268 4.16267 8.52681 4.1918 8.52373 4.21754C8.52299 4.22374 8.51358 4.24775 8.50978 4.25271C8.50242 4.26233 8.50756 4.28049 8.50113 4.28889C8.49675 4.2946 8.49383 4.31887 8.49343 4.32608C8.49259 4.34103 8.49343 4.35632 8.49343 4.3713" stroke="url(#paint29_linear)" stroke-linecap="round" stroke-linejoin="round"/>
<path d="M5.1134 4.39844C5.12909 4.38651 5.13578 4.38487 5.15428 4.38487C5.16874 4.38487 5.16967 4.37792 5.16967 4.36452C5.16967 4.34513 5.14963 4.35435 5.13745 4.35799C5.13117 4.35986 5.13071 4.37014 5.13071 4.35547C5.13071 4.34801 5.12895 4.34131 5.12422 4.33537C5.11592 4.32498 5.12814 4.30313 5.13047 4.29216C5.13822 4.25571 5.16544 4.22157 5.18963 4.19242C5.21381 4.16327 5.2465 4.14841 5.28006 4.13413C5.305 4.12351 5.32943 4.11114 5.35509 4.10247C5.37838 4.0946 5.38439 4.07376 5.4092 4.0683C5.47432 4.05398 5.54219 4.05926 5.60905 4.05926C5.63013 4.05926 5.6375 4.06947 5.65233 4.08187C5.66 4.08827 5.66754 4.10448 5.67831 4.10448C5.6993 4.10448 5.66479 4.08174 5.66316 4.07961C5.65351 4.067 5.65068 4.06264 5.63502 4.059C5.62739 4.05723 5.60896 4.03936 5.60039 4.03438C5.58835 4.0274 5.57081 4.0276 5.5571 4.0276C5.54575 4.0276 5.53287 4.01855 5.52031 4.01855C5.50588 4.01855 5.49145 4.01855 5.47702 4.01855C5.46259 4.01855 5.44816 4.01855 5.43373 4.01855C5.41426 4.01855 5.40133 4.02682 5.38275 4.0276C5.32266 4.03011 5.27508 4.05783 5.22162 4.0874C5.19931 4.09973 5.1808 4.12703 5.16342 4.14518C5.14668 4.16267 5.12081 4.1918 5.11773 4.21754C5.11698 4.22374 5.10758 4.24775 5.10378 4.25271C5.09642 4.26233 5.10155 4.28049 5.09512 4.28889C5.09075 4.2946 5.08783 4.31887 5.08742 4.32608C5.08658 4.34103 5.08742 4.35632 5.08742 4.3713" stroke="url(#paint30_linear)" stroke-linecap="round" stroke-linejoin="round"/>
<path d="M1.02624 4.39844C1.04193 4.38651 1.04862 4.38487 1.06712 4.38487C1.08158 4.38487 1.08251 4.37792 1.08251 4.36452C1.08251 4.34513 1.06248 4.35435 1.05029 4.35799C1.04402 4.35986 1.04355 4.37014 1.04355 4.35547C1.04355 4.34801 1.04179 4.34131 1.03706 4.33537C1.02877 4.32498 1.04098 4.30313 1.04331 4.29216C1.05107 4.25571 1.07828 4.22157 1.10247 4.19242C1.12665 4.16327 1.15934 4.14841 1.1929 4.13413C1.21785 4.12351 1.24227 4.11114 1.26793 4.10247C1.29122 4.0946 1.29723 4.07376 1.32204 4.0683C1.38716 4.05398 1.45504 4.05926 1.52189 4.05926C1.54297 4.05926 1.55034 4.06947 1.56518 4.08187C1.57284 4.08827 1.58038 4.10448 1.59115 4.10448C1.61214 4.10448 1.57763 4.08174 1.576 4.07961C1.56635 4.067 1.56352 4.06264 1.54786 4.059C1.54023 4.05723 1.5218 4.03936 1.51323 4.03438C1.5012 4.0274 1.48365 4.0276 1.46994 4.0276C1.4586 4.0276 1.44571 4.01855 1.43315 4.01855C1.41872 4.01855 1.40429 4.01855 1.38986 4.01855C1.37543 4.01855 1.361 4.01855 1.34657 4.01855C1.3271 4.01855 1.31417 4.02682 1.29559 4.0276C1.2355 4.03011 1.18792 4.05783 1.13446 4.0874C1.11216 4.09973 1.09364 4.12703 1.07626 4.14518C1.05952 4.16267 1.03365 4.1918 1.03057 4.21754C1.02983 4.22374 1.02042 4.24775 1.01662 4.25271C1.00926 4.26233 1.0144 4.28049 1.00796 4.28889C1.00359 4.2946 1.00067 4.31887 1.00027 4.32608C0.999423 4.34103 1.00027 4.35632 1.00027 4.3713" stroke="url(#paint31_linear)" stroke-linecap="round" stroke-linejoin="round"/>
<path d="M44.8785 4.39844C44.8629 4.38651 44.8562 4.38487 44.8377 4.38487C44.8232 4.38487 44.8223 4.37792 44.8223 4.36452C44.8223 4.34513 44.8423 4.35435 44.8545 4.35799C44.8608 4.35986 44.8612 4.37014 44.8612 4.35547C44.8612 4.34801 44.863 4.34131 44.8677 4.33537C44.876 4.32498 44.8638 4.30313 44.8615 4.29216C44.8537 4.25571 44.8265 4.22157 44.8023 4.19242C44.7781 4.16327 44.7454 4.14841 44.7119 4.13413C44.6869 4.12351 44.6625 4.11114 44.6369 4.10247C44.6136 4.0946 44.6076 4.07376 44.5827 4.0683C44.5176 4.05398 44.4498 4.05926 44.3829 4.05926C44.3618 4.05926 44.3544 4.06947 44.3396 4.08187C44.3319 4.08827 44.3244 4.10448 44.3136 4.10448C44.2926 4.10448 44.3272 4.08174 44.3288 4.07961C44.3384 4.067 44.3413 4.06264 44.3569 4.059C44.3646 4.05723 44.383 4.03936 44.3916 4.03438C44.4036 4.0274 44.4211 4.0276 44.4348 4.0276C44.4462 4.0276 44.4591 4.01855 44.4716 4.01855C44.4861 4.01855 44.5005 4.01855 44.5149 4.01855C44.5294 4.01855 44.5438 4.01855 44.5582 4.01855C44.5777 4.01855 44.5906 4.02682 44.6092 4.0276C44.6693 4.03011 44.7169 4.05783 44.7703 4.0874C44.7926 4.09973 44.8111 4.12703 44.8285 4.14518C44.8453 4.16267 44.8711 4.1918 44.8742 4.21754C44.875 4.22374 44.8844 4.24775 44.8882 4.25271C44.8955 4.26233 44.8904 4.28049 44.8968 4.28889C44.9012 4.2946 44.9041 4.31887 44.9045 4.32608C44.9054 4.34103 44.9045 4.35632 44.9045 4.3713" stroke="url(#paint32_linear)" stroke-linecap="round" stroke-linejoin="round"/>
<path d="M44.2791 4.21895C44.2703 4.22608 44.2685 4.23404 44.2656 4.22327C44.264 4.21771 44.2582 4.221 44.2556 4.21833C44.2537 4.21635 44.2509 4.19437 44.2529 4.19177C44.2633 4.17827 44.2737 4.15808 44.2791 4.14111" stroke="url(#paint33_linear)" stroke-linecap="round" stroke-linejoin="round"/>
<path d="M41.4596 4.39844C41.4439 4.38651 41.4372 4.38487 41.4187 4.38487C41.4043 4.38487 41.4033 4.37792 41.4033 4.36452C41.4033 4.34513 41.4234 4.35435 41.4356 4.35799C41.4418 4.35986 41.4423 4.37014 41.4423 4.35547C41.4423 4.34801 41.444 4.34131 41.4488 4.33537C41.4571 4.32498 41.4449 4.30313 41.4425 4.29216C41.4348 4.25571 41.4076 4.22157 41.3834 4.19242C41.3592 4.16327 41.3265 4.14841 41.2929 4.13413C41.268 4.12351 41.2436 4.11114 41.2179 4.10247C41.1946 4.0946 41.1886 4.07376 41.1638 4.0683C41.0987 4.05398 41.0308 4.05926 40.964 4.05926C40.9429 4.05926 40.9355 4.06947 40.9207 4.08187C40.913 4.08827 40.9055 4.10448 40.8947 4.10448C40.8737 4.10448 40.9082 4.08174 40.9098 4.07961C40.9195 4.067 40.9223 4.06264 40.938 4.059C40.9456 4.05723 40.964 4.03936 40.9726 4.03438C40.9846 4.0274 41.0022 4.0276 41.0159 4.0276C41.0272 4.0276 41.0401 4.01855 41.0527 4.01855C41.0671 4.01855 41.0816 4.01855 41.096 4.01855C41.1104 4.01855 41.1248 4.01855 41.1393 4.01855C41.1587 4.01855 41.1717 4.02682 41.1903 4.0276C41.2503 4.03011 41.2979 4.05783 41.3514 4.0874C41.3737 4.09973 41.3922 4.12703 41.4096 4.14518C41.4263 4.16267 41.4522 4.1918 41.4553 4.21754C41.456 4.22374 41.4654 4.24775 41.4692 4.25271C41.4766 4.26233 41.4714 4.28049 41.4779 4.28889C41.4823 4.2946 41.4852 4.31887 41.4856 4.32608C41.4864 4.34103 41.4856 4.35632 41.4856 4.3713" stroke="url(#paint34_linear)" stroke-linecap="round" stroke-linejoin="round"/>
<path d="M40.8595 4.21895C40.8506 4.22608 40.8489 4.23404 40.8459 4.22327C40.8444 4.21771 40.8385 4.221 40.8359 4.21833C40.834 4.21635 40.8312 4.19437 40.8332 4.19177C40.8436 4.17827 40.854 4.15808 40.8595 4.14111" stroke="url(#paint35_linear)" stroke-linecap="round" stroke-linejoin="round"/>
<path d="M9.05737 4.21305C9.09209 4.16703 9.09808 4.18993 9.13624 4.17676" stroke="url(#paint36_linear)" stroke-linecap="round" stroke-linejoin="round"/>
<path d="M8.49219 4.29492C8.49219 4.34682 8.50126 4.39644 8.50126 4.44917" stroke="url(#paint37_linear)" stroke-linecap="round" stroke-linejoin="round"/>
<defs>
<linearGradient id="paint0_linear" x1="41.6314" y1="23.6006" x2="50.5648" y2="28.0938" gradientUnits="userSpaceOnUse">
<stop stop-color="#6A11CB"/>
<stop offset="1" stop-color="#2575FC"/>
</linearGradient>
<linearGradient id="paint1_linear" x1="31.0416" y1="35.9233" x2="14.4776" y2="32.2508" gradientUnits="userSpaceOnUse">
<stop stop-color="#6A11CB"/>
<stop offset="1" stop-color="#2575FC"/>
</linearGradient>
<linearGradient id="paint2_linear" x1="39.5385" y1="20.0909" x2="41.9938" y2="21.0144" gradientUnits="userSpaceOnUse">
<stop stop-color="#6A11CB"/>
<stop offset="1" stop-color="#2575FC"/>
</linearGradient>
<linearGradient id="paint3_linear" x1="30.493" y1="28.5862" x2="14.5834" y2="25.1486" gradientUnits="userSpaceOnUse">
<stop stop-color="#6A11CB"/>
<stop offset="1" stop-color="#2575FC"/>
</linearGradient>
<linearGradient id="paint4_linear" x1="37.3243" y1="16.3549" x2="39.7635" y2="17.3165" gradientUnits="userSpaceOnUse">
<stop stop-color="#6A11CB"/>
<stop offset="1" stop-color="#2575FC"/>
</linearGradient>
<linearGradient id="paint5_linear" x1="30.1921" y1="21.6542" x2="15.0379" y2="17.9217" gradientUnits="userSpaceOnUse">
<stop stop-color="#6A11CB"/>
<stop offset="1" stop-color="#2575FC"/>
</linearGradient>
<linearGradient id="paint6_linear" x1="8.36027" y1="23.6006" x2="-0.573076" y2="28.0938" gradientUnits="userSpaceOnUse">
<stop stop-color="#6A11CB"/>
<stop offset="1" stop-color="#2575FC"/>
</linearGradient>
<linearGradient id="paint7_linear" x1="18.9499" y1="35.9232" x2="35.5114" y2="32.254" gradientUnits="userSpaceOnUse">
<stop stop-color="#6A11CB"/>
<stop offset="1" stop-color="#2575FC"/>
</linearGradient>
<linearGradient id="paint8_linear" x1="10.4532" y1="20.0909" x2="7.9979" y2="21.0144" gradientUnits="userSpaceOnUse">
<stop stop-color="#6A11CB"/>
<stop offset="1" stop-color="#2575FC"/>
</linearGradient>
<linearGradient id="paint9_linear" x1="19.4605" y1="28.6602" x2="33.7778" y2="26.7786" gradientUnits="userSpaceOnUse">
<stop stop-color="#6A11CB"/>
<stop offset="1" stop-color="#2575FC"/>
</linearGradient>
<linearGradient id="paint10_linear" x1="12.6671" y1="16.3549" x2="10.228" y2="17.3165" gradientUnits="userSpaceOnUse">
<stop stop-color="#6A11CB"/>
<stop offset="1" stop-color="#2575FC"/>
</linearGradient>
<linearGradient id="paint11_linear" x1="19.7236" y1="21.8021" x2="31.4936" y2="21.1215" gradientUnits="userSpaceOnUse">
<stop stop-color="#6A11CB"/>
<stop offset="1" stop-color="#2575FC"/>
</linearGradient>
<linearGradient id="paint12_linear" x1="35.217" y1="42.9834" x2="36.6327" y2="43.2219" gradientUnits="userSpaceOnUse">
<stop stop-color="#6A11CB"/>
<stop offset="1" stop-color="#2575FC"/>
</linearGradient>
<linearGradient id="paint13_linear" x1="35.1868" y1="43.2295" x2="36.7241" y2="43.5433" gradientUnits="userSpaceOnUse">
<stop stop-color="#6A11CB"/>
<stop offset="1" stop-color="#2575FC"/>
</linearGradient>
<linearGradient id="paint14_linear" x1="35.5026" y1="43.374" x2="36.0201" y2="43.4362" gradientUnits="userSpaceOnUse">
<stop stop-color="#6A11CB"/>
<stop offset="1" stop-color="#2575FC"/>
</linearGradient>
<linearGradient id="paint15_linear" x1="14.821" y1="43.125" x2="16.4128" y2="43.3806" gradientUnits="userSpaceOnUse">
<stop stop-color="#6A11CB"/>
<stop offset="1" stop-color="#2575FC"/>
</linearGradient>
<linearGradient id="paint16_linear" x1="24.9912" y1="28.437" x2="27.233" y2="28.9619" gradientUnits="userSpaceOnUse">
<stop stop-color="#6A11CB"/>
<stop offset="1" stop-color="#2575FC"/>
</linearGradient>
<linearGradient id="paint17_linear" x1="15.4545" y1="35.73" x2="17.0534" y2="35.9101" gradientUnits="userSpaceOnUse">
<stop stop-color="#6A11CB"/>
<stop offset="1" stop-color="#2575FC"/>
</linearGradient>
<linearGradient id="paint18_linear" x1="34.3874" y1="35.7891" x2="35.7312" y2="36.0519" gradientUnits="userSpaceOnUse">
<stop stop-color="#6A11CB"/>
<stop offset="1" stop-color="#2575FC"/>
</linearGradient>
<linearGradient id="paint19_linear" x1="34.5053" y1="36.061" x2="36.0252" y2="36.3988" gradientUnits="userSpaceOnUse">
<stop stop-color="#6A11CB"/>
<stop offset="1" stop-color="#2575FC"/>
</linearGradient>
<linearGradient id="paint20_linear" x1="33.7132" y1="28.2432" x2="34.6442" y2="28.3598" gradientUnits="userSpaceOnUse">
<stop stop-color="#6A11CB"/>
<stop offset="1" stop-color="#2575FC"/>
</linearGradient>
<linearGradient id="paint21_linear" x1="16.3006" y1="28.3745" x2="17.1874" y2="28.5437" gradientUnits="userSpaceOnUse">
<stop stop-color="#6A11CB"/>
<stop offset="1" stop-color="#2575FC"/>
</linearGradient>
<linearGradient id="paint22_linear" x1="24.6612" y1="21.9927" x2="24.7022" y2="21.9957" gradientUnits="userSpaceOnUse">
<stop stop-color="#6A11CB"/>
<stop offset="1" stop-color="#2575FC"/>
</linearGradient>
<linearGradient id="paint23_linear" x1="24.4128" y1="21.7871" x2="24.9999" y2="21.9367" gradientUnits="userSpaceOnUse">
<stop stop-color="#6A11CB"/>
<stop offset="1" stop-color="#2575FC"/>
</linearGradient>
<linearGradient id="paint24_linear" x1="25.0842" y1="21.8315" x2="25.5409" y2="21.8969" gradientUnits="userSpaceOnUse">
<stop stop-color="#6A11CB"/>
<stop offset="1" stop-color="#2575FC"/>
</linearGradient>
<linearGradient id="paint25_linear" x1="24.804" y1="21.2866" x2="26.5908" y2="21.7234" gradientUnits="userSpaceOnUse">
<stop stop-color="#6A11CB"/>
<stop offset="1" stop-color="#2575FC"/>
</linearGradient>
<linearGradient id="paint26_linear" x1="24.648" y1="14.6484" x2="26.9533" y2="15.0255" gradientUnits="userSpaceOnUse">
<stop stop-color="#6A11CB"/>
<stop offset="1" stop-color="#2575FC"/>
</linearGradient>
<linearGradient id="paint27_linear" x1="48.6662" y1="4.146" x2="49.5759" y2="4.44669" gradientUnits="userSpaceOnUse">
<stop stop-color="#6A11CB"/>
<stop offset="1" stop-color="#2575FC"/>
</linearGradient>
<linearGradient id="paint28_linear" x1="48.7011" y1="4" x2="49.594" y2="4.18036" gradientUnits="userSpaceOnUse">
<stop stop-color="#6A11CB"/>
<stop offset="1" stop-color="#2575FC"/>
</linearGradient>
<linearGradient id="paint29_linear" x1="8.79206" y1="4.01855" x2="7.89913" y2="4.19892" gradientUnits="userSpaceOnUse">
<stop stop-color="#6A11CB"/>
<stop offset="1" stop-color="#2575FC"/>
</linearGradient>
<linearGradient id="paint30_linear" x1="5.38605" y1="4.01855" x2="4.49312" y2="4.19892" gradientUnits="userSpaceOnUse">
<stop stop-color="#6A11CB"/>
<stop offset="1" stop-color="#2575FC"/>
</linearGradient>
<linearGradient id="paint31_linear" x1="1.2989" y1="4.01855" x2="0.405965" y2="4.19892" gradientUnits="userSpaceOnUse">
<stop stop-color="#6A11CB"/>
<stop offset="1" stop-color="#2575FC"/>
</linearGradient>
<linearGradient id="paint32_linear" x1="44.6059" y1="4.01855" x2="45.4988" y2="4.19892" gradientUnits="userSpaceOnUse">
<stop stop-color="#6A11CB"/>
<stop offset="1" stop-color="#2575FC"/>
</linearGradient>
<linearGradient id="paint33_linear" x1="44.2657" y1="4.14111" x2="44.3075" y2="4.14277" gradientUnits="userSpaceOnUse">
<stop stop-color="#6A11CB"/>
<stop offset="1" stop-color="#2575FC"/>
</linearGradient>
<linearGradient id="paint34_linear" x1="41.1869" y1="4.01855" x2="42.0799" y2="4.19892" gradientUnits="userSpaceOnUse">
<stop stop-color="#6A11CB"/>
<stop offset="1" stop-color="#2575FC"/>
</linearGradient>
<linearGradient id="paint35_linear" x1="40.846" y1="4.14111" x2="40.8878" y2="4.14277" gradientUnits="userSpaceOnUse">
<stop stop-color="#6A11CB"/>
<stop offset="1" stop-color="#2575FC"/>
</linearGradient>
<linearGradient id="paint36_linear" x1="9.0968" y1="4.17676" x2="9.21052" y2="4.20846" gradientUnits="userSpaceOnUse">
<stop stop-color="#6A11CB"/>
<stop offset="1" stop-color="#2575FC"/>
</linearGradient>
<linearGradient id="paint37_linear" x1="8.49672" y1="4.29492" x2="8.51082" y2="4.29503" gradientUnits="userSpaceOnUse">
<stop stop-color="#6A11CB"/>
<stop offset="1" stop-color="#2575FC"/>
</linearGradient>
</defs>
</svg>
